<svg xmlns="http://www.w3.org/2000/svg" xmlns:xlink="http://www.w3.org/1999/xlink" viewBox="0 0 750 500"><defs><style>.cls-1{fill:none;}.cls-2{fill:#8ec1c4;}.cls-3{fill:#80b7bb;}.cls-10,.cls-11,.cls-12,.cls-13,.cls-14,.cls-15,.cls-16,.cls-17,.cls-18,.cls-19,.cls-3,.cls-5,.cls-6,.cls-7,.cls-8,.cls-9{fill-rule:evenodd;}.cls-4{clip-path:url(#clip-path);}.cls-5{fill:#fff;}.cls-6{fill:#ededed;}.cls-7{fill:#731602;}.cls-8{fill:#d8d8d8;}.cls-9{fill:#ca531a;}.cls-10{fill:#b43f17;}.cls-11{fill:#bd4618;}.cls-12{fill:#20201e;}.cls-13{fill:#cd5b3b;}.cls-14{fill:#3d7336;}.cls-15{fill:#ecc861;}.cls-16{fill:#2f5b29;}.cls-17{fill:#3d3d3c;}.cls-18{fill:#575756;}.cls-19{fill:#6a986d;}</style><clipPath id="clip-path"><rect class="cls-1" y="32.17" width="750" height="467.83"/></clipPath></defs><g id="BACKGROUND"><rect class="cls-2" y="0.17" width="750" height="500"/></g><g id="OBJECTS"><path class="cls-3" d="M750,318.57v181.6H0V321.32C44,300,56.61,300,99.69,317.64c50.48,20.73,88.33-3.56,130.92,13.62,38.46,15.51,71.65,53.1,133.18,41.95,100.17-18.14,80-84,187.8-55.53C663.94,347.37,719.61,325.54,750,318.57Z"/><g class="cls-4"><path class="cls-5" d="M64,325.41c-.39.2-.18,1.5-1.53,5.17-1.47,4-5.6,9.46-7.21,11.27s1.7,1,2.33.87-8.86,7.51-8.72,9.76,8.24-4.61,8.07-3.47-6.51,6.22-6.72,7.9.81,1.54.81,1.54-9.38,10.32-9.41,11.71,3-.77,3.42-.28-2,3.32.05,3.33,3.22-1.6.44,3.28c-1.15,2-2.58,3.46-3.29,4.78s1.51,1.47,2.77,1c3.08-1.2-10,12.8-10.11,14.75-.13,1.69,3.6.35,5.3-.6s-5.8,6-5.41,8,4.14.4,4.14.4-10.28,8.68-10.39,10.32c-.82,12.46,58.06,13.63,66.27,4.29,1.53-1.73-6.16-8-6.16-8s.07.16,2,.23-6-9.27-6-9.27,3.5,1.66,3.43-.43-6.48-9.09-6.48-9.09a30.24,30.24,0,0,0,5.62,3.3c2.62,1.05,2.15-.84-.36-5.36S82.1,382,82.1,382s5.41,3,4-.07-9.39-11.47-9.39-11.47,3,2.39,5.9,2.62-4.34-9.85-4.34-9.85,4.5.82,1.52-3.67-8.32-11.23-5.33-8.91,7.35,1.81,4.08-.77-7.5-7-5.27-5.82,4.25,0,2.65-1.34-8.1-9.05-9.53-13.64C65.14,324.89,64.43,324.69,64,325.41Z"/><path class="cls-6" d="M742.33,355.59c-.41.23-.19,1.61-1.64,5.55-1.57,4.27-6,10.13-7.72,12.07s1.82,1.05,2.49.94-9.49,8-9.34,10.45,8.83-4.94,8.65-3.72-7,6.67-7.2,8.47.87,1.64.87,1.64-10.05,11.06-10.08,12.55,3.21-.83,3.66-.29-2.18,3.55.06,3.56,3.44-1.72.47,3.52c-1.24,2.17-2.77,3.7-3.53,5.12s1.62,1.57,3,1c3.3-1.28-10.67,13.72-10.84,15.81-.14,1.81,3.87.38,5.68-.64s-6.21,6.39-5.8,8.58,4.44.42,4.44.42-11,9.3-11.13,11.06c-.87,13.35,62.21,14.61,71,4.6,1.64-1.86-6.6-8.54-6.6-8.54s.07.17,2.14.25-6.43-9.94-6.43-9.94,3.75,1.78,3.68-.46-7-9.73-7-9.73a32.68,32.68,0,0,0,6,3.53c2.81,1.13,2.3-.9-.38-5.74s-5.06-9.5-5.06-9.5,5.8,3.18,4.31-.08S756,403.82,756,403.82s3.2,2.56,6.32,2.81-4.64-10.55-4.64-10.55,4.82.87,1.63-3.93-8.92-12-5.72-9.55,7.88,1.93,4.37-.82-8-7.5-5.64-6.24,4.55,0,2.84-1.43-8.69-9.7-10.21-14.63C743.59,355,742.83,354.83,742.33,355.59Z"/><path class="cls-6" d="M488.15,380c-.28.15-.13,1.08-1.1,3.74a33.31,33.31,0,0,1-5.22,8.14c-1.16,1.31,1.23.71,1.68.64s-6.39,5.42-6.3,7.05,6-3.34,5.84-2.51-4.71,4.49-4.86,5.71.59,1.11.59,1.11-6.78,7.46-6.8,8.46,2.16-.56,2.47-.2-1.47,2.4,0,2.41,2.32-1.16.32,2.37c-.84,1.47-1.87,2.5-2.38,3.46s1.09,1,2,.7c2.22-.87-7.2,9.25-7.31,10.66-.1,1.22,2.6.26,3.83-.43s-4.19,4.31-3.91,5.79,3,.28,3,.28-7.43,6.28-7.5,7.47c-.6,9,42,9.85,47.89,3.1,1.1-1.26-4.45-5.76-4.45-5.76s0,.11,1.44.16-4.34-6.7-4.34-6.7,2.53,1.2,2.48-.31-4.68-6.57-4.68-6.57a22.28,22.28,0,0,0,4.05,2.39c1.9.76,1.56-.61-.25-3.88s-3.42-6.41-3.42-6.41,3.92,2.15,2.91,0-6.78-8.29-6.78-8.29a9.32,9.32,0,0,0,4.26,1.89c2.11.17-3.13-7.11-3.13-7.11s3.25.59,1.1-2.65-6-8.12-3.86-6.45,5.32,1.31,2.95-.55-5.42-5.06-3.81-4.21,3.07,0,1.92-1-5.86-6.55-6.89-9.87C489,379.6,488.49,379.45,488.15,380Z"/><path class="cls-5" d="M707.7,306.57c-.46.24-.2,1.79-1.82,6.18-1.76,4.76-6.7,11.31-8.63,13.47s2,1.17,2.79,1-10.58,9-10.42,11.67,9.85-5.52,9.65-4.15-7.78,7.43-8,9.45,1,1.83,1,1.83S681,358.4,681,360.06s3.58-.93,4.08-.33-2.43,4,.07,4,3.84-1.92.52,3.92c-1.38,2.43-3.08,4.13-3.93,5.71s1.8,1.75,3.31,1.17c3.68-1.44-11.91,15.3-12.09,17.63-.16,2,4.31.43,6.34-.71s-6.93,7.13-6.47,9.57,5,.47,5,.47-12.29,10.38-12.41,12.34c-1,14.89,69.39,16.29,79.2,5.13,1.83-2.07-7.36-9.53-7.36-9.53s.08.19,2.38.28-7.17-11.09-7.17-11.09,4.18,2,4.1-.51-7.75-10.86-7.75-10.86a36.28,36.28,0,0,0,6.72,3.94c3.13,1.26,2.57-1-.43-6.41s-5.64-10.59-5.64-10.59,6.47,3.54,4.81-.09S723,360.36,723,360.36s3.56,2.87,7,3.14-5.18-11.77-5.18-11.77,5.37,1,1.82-4.38-9.95-13.43-6.38-10.66,8.79,2.16,4.87-.92-9-8.36-6.29-6.95,5.08,0,3.17-1.6-9.69-10.83-11.39-16.32C709.11,306,708.26,305.71,707.7,306.57Z"/><path class="cls-5" d="M534.9,288.66c-.6.33-.18,2.4-2.11,8.28-2.1,6.37-8.37,15.14-10.83,18s2.79,1.57,3.78,1.4-13.69,12-13.33,15.62,12.9-7.39,12.71-5.55-10,9.95-10.25,12.65,1.39,2.45,1.39,2.45-14.36,16.52-14.32,18.75,4.75-1.24,5.46-.44-3,5.31.3,5.32,5-2.57.91,5.25c-1.72,3.26-3.91,5.53-5,7.66s2.51,2.34,4.49,1.56c4.85-1.92-15.13,20.49-15.24,23.61-.11,2.7,5.79.57,8.44-.95s-8.89,9.54-8.15,12.81,6.66.64,6.66.64-15.9,13.89-16,16.52c-.51,19.93,93.8,21.81,106.34,6.87,2.34-2.78-10.36-12.76-10.36-12.76s.11.25,3.2.37-10.2-14.85-10.2-14.85,5.71,2.66,5.47-.69-11-14.53-11-14.53a51,51,0,0,0,9.21,5.27c4.26,1.69,3.39-1.34-.92-8.58s-8.12-14.19-8.12-14.19,8.85,4.75,6.44-.12-15.77-18.36-15.77-18.36,4.93,3.83,9.62,4.19-7.57-15.75-7.57-15.75,7.25,1.3,2.2-5.87-14-18-9.11-14.28,11.89,2.9,6.48-1.22-12.45-11.2-8.8-9.32,6.8,0,4.16-2.14-13.56-14.49-16.13-21.84C536.75,287.83,535.6,287.52,534.9,288.66Z"/><path class="cls-6" d="M461.07,398.41c-.22.12-.1.85-.86,2.92a25.82,25.82,0,0,1-4.07,6.35c-.91,1,1,.56,1.31.49s-5,4.24-4.91,5.5,4.64-2.6,4.55-1.95-3.67,3.51-3.79,4.45.46.87.46.87-5.29,5.82-5.31,6.6,1.69-.43,1.93-.15-1.15,1.87,0,1.87,1.81-.9.25,1.85c-.65,1.15-1.45,2-1.85,2.7s.85.82,1.55.55c1.74-.68-5.61,7.21-5.7,8.31s2,.2,3-.33-3.27,3.36-3,4.51,2.34.22,2.34.22-5.8,4.89-5.86,5.82c-.46,7,32.73,7.68,37.36,2.42.86-1-3.47-4.49-3.47-4.49s0,.09,1.12.13-3.39-5.23-3.39-5.23,2,.94,1.94-.24-3.65-5.12-3.65-5.12a16.84,16.84,0,0,0,3.16,1.85c1.48.6,1.22-.47-.2-3s-2.66-5-2.66-5,3,1.68,2.27,0-5.29-6.46-5.29-6.46a7.36,7.36,0,0,0,3.32,1.47c1.65.13-2.44-5.55-2.44-5.55s2.53.46.86-2.06-4.7-6.34-3-5,4.15,1,2.3-.43-4.23-3.95-3-3.28,2.39,0,1.49-.76-4.57-5.1-5.37-7.69C461.73,398.12,461.33,398,461.07,398.41Z"/><path class="cls-5" d="M256.44,369.51c-.24.14-.11,1-1,3.31a29.81,29.81,0,0,1-4.6,7.19c-1,1.15,1.08.62,1.48.55s-5.65,4.79-5.56,6.23,5.26-2.94,5.15-2.21-4.15,4-4.29,5,.52,1,.52,1-6,6.59-6,7.47,1.92-.49,2.19-.17-1.3,2.11,0,2.12,2.05-1,.28,2.09c-.74,1.3-1.65,2.21-2.1,3.06s1,.93,1.77.62c2-.77-6.36,8.17-6.46,9.41-.08,1.08,2.3.23,3.39-.38s-3.7,3.81-3.46,5.11,2.65.25,2.65.25-6.56,5.54-6.63,6.59c-.52,8,37.05,8.7,42.29,2.74,1-1.11-3.93-5.09-3.93-5.09s0,.1,1.27.15-3.83-5.92-3.83-5.92,2.23,1.06,2.19-.27-4.14-5.8-4.14-5.8a19.2,19.2,0,0,0,3.59,2.1c1.67.68,1.37-.53-.23-3.42s-3-5.66-3-5.66,3.46,1.9,2.57,0-6-7.32-6-7.32a8.39,8.39,0,0,0,3.77,1.67c1.86.14-2.77-6.28-2.77-6.28s2.87.52,1-2.34-5.31-7.17-3.4-5.69,4.69,1.15,2.6-.49-4.78-4.47-3.36-3.72,2.71,0,1.69-.85-5.17-5.78-6.08-8.71C257.19,369.19,256.74,369.06,256.44,369.51Z"/><path class="cls-5" d="M231.06,390.17c-.25.13-.11,1-1,3.3a29,29,0,0,1-4.6,7.19c-1,1.15,1.09.63,1.49.56s-5.65,4.79-5.57,6.23,5.26-2.95,5.15-2.22-4.15,4-4.28,5,.51,1,.51,1-6,6.59-6,7.48,1.91-.5,2.18-.18-1.3,2.12,0,2.12,2.06-1,.28,2.1c-.73,1.29-1.64,2.2-2.09,3.05s1,.93,1.76.62c2-.76-6.35,8.17-6.45,9.41-.09,1.08,2.3.23,3.38-.38s-3.7,3.81-3.45,5.11,2.64.26,2.64.26-6.56,5.54-6.63,6.58c-.52,7.95,37,8.7,42.29,2.74,1-1.11-3.93-5.08-3.93-5.08s0,.1,1.27.14-3.83-5.92-3.83-5.92,2.24,1.07,2.19-.27-4.13-5.8-4.13-5.8a19.13,19.13,0,0,0,3.58,2.11c1.67.67,1.37-.54-.23-3.42s-3-5.66-3-5.66,3.45,1.89,2.57-.05-6-7.32-6-7.32a8.22,8.22,0,0,0,3.76,1.67c1.87.15-2.76-6.28-2.76-6.28s2.87.52,1-2.34-5.32-7.17-3.41-5.69,4.7,1.15,2.6-.49-4.78-4.46-3.36-3.71,2.71,0,1.7-.86-5.18-5.77-6.08-8.71C231.81,389.84,231.36,389.71,231.06,390.17Z"/><path class="cls-5" d="M292.42,391.89c-.24.14-.11,1-1,3.31a29.51,29.51,0,0,1-4.61,7.19c-1,1.15,1.09.62,1.49.56s-5.65,4.78-5.56,6.22,5.26-2.94,5.15-2.21-4.16,4-4.29,5,.52,1,.52,1-6,6.59-6,7.47,1.91-.49,2.19-.17-1.3,2.12,0,2.12,2.05-1,.28,2.09c-.74,1.3-1.65,2.21-2.1,3.06s1,.93,1.77.62c2-.77-6.36,8.17-6.46,9.41-.08,1.08,2.3.23,3.39-.38s-3.7,3.81-3.46,5.11,2.65.25,2.65.25-6.56,5.54-6.63,6.59c-.52,8,37.05,8.7,42.29,2.74,1-1.11-3.93-5.09-3.93-5.09s0,.11,1.27.15S305.6,441,305.6,441s2.23,1.06,2.19-.27-4.14-5.8-4.14-5.8a19.2,19.2,0,0,0,3.59,2.1c1.67.68,1.37-.53-.23-3.42s-3-5.66-3-5.66,3.46,1.9,2.57,0-6-7.32-6-7.32a8.28,8.28,0,0,0,3.77,1.67c1.86.14-2.77-6.28-2.77-6.28s2.87.52,1-2.34-5.31-7.17-3.4-5.69,4.69,1.15,2.6-.49-4.78-4.47-3.36-3.72,2.71,0,1.69-.85-5.17-5.78-6.08-8.71C293.17,391.57,292.72,391.44,292.42,391.89Z"/><path class="cls-6" d="M4.85,224.3c-.78.42-.35,3.07-3.12,10.56-3,8.13-11.43,19.3-14.72,23s3.48,2,4.75,1.79S-26.3,275-26,279.55s16.82-9.42,16.48-7.08-13.28,12.69-13.71,16.13,1.65,3.12,1.65,3.12-19.14,21.07-19.2,23.9,6.11-1.57,7-.56-4.15,6.77.1,6.79,6.57-3.28.9,6.69c-2.35,4.15-5.26,7-6.71,9.76-1.35,2.53,3.08,3,5.64,2,6.29-2.45-20.32,26.12-20.63,30.1-.27,3.45,7.36.73,10.82-1.21s-11.83,12.17-11,16.33,8.46.81,8.46.81-21,17.72-21.2,21.07C-69.17,432.8,51,435.2,67.72,416.14c3.12-3.54-12.56-16.26-12.56-16.26s.13.33,4.06.47S47,381.42,47,381.42s7.15,3.4,7-.87S40.75,362,40.75,362a61.91,61.91,0,0,0,11.46,6.73c5.36,2.15,4.39-1.71-.72-10.94s-9.64-18.09-9.64-18.09,11,6.06,8.21-.16-19.15-23.41-19.15-23.41S37,321,43,321.5s-8.85-20.09-8.85-20.09,9.18,1.66,3.11-7.49-17-22.92-10.89-18.19,15,3.69,8.32-1.56-15.3-14.28-10.75-11.88,8.67,0,5.42-2.73S12.76,241.08,9.86,231.71C7.25,223.25,5.8,222.85,4.85,224.3Z"/><path class="cls-6" d="M98.23,374.74c-.21.11-.09.79-.81,2.72a24.26,24.26,0,0,1-3.78,5.91c-.84.95.89.51,1.22.46s-4.64,3.94-4.57,5.12,4.32-2.42,4.23-1.82-3.41,3.26-3.52,4.14.42.81.42.81-4.92,5.42-4.94,6.14,1.58-.4,1.8-.14-1.07,1.74,0,1.75,1.68-.85.23,1.72c-.61,1.06-1.36,1.81-1.73,2.51s.79.76,1.45.51c1.62-.63-5.22,6.72-5.3,7.74s1.89.18,2.78-.31-3,3.13-2.84,4.2,2.17.21,2.17.21-5.39,4.55-5.45,5.41c-.43,6.54,30.47,7.15,34.77,2.25.81-.91-3.23-4.18-3.23-4.18s0,.09,1,.12-3.15-4.87-3.15-4.87,1.84.88,1.8-.22-3.4-4.77-3.4-4.77a15.67,15.67,0,0,0,3,1.73c1.37.56,1.13-.44-.19-2.81s-2.48-4.65-2.48-4.65,2.84,1.56,2.11,0-4.92-6-4.92-6a6.7,6.7,0,0,0,3.09,1.37c1.54.12-2.27-5.16-2.27-5.16s2.36.43.8-1.93-4.37-5.89-2.8-4.67,3.86.95,2.14-.41-3.94-3.67-2.77-3.05,2.23,0,1.4-.7-4.26-4.75-5-7.16C98.84,374.47,98.47,374.37,98.23,374.74Z"/><path class="cls-6" d="M442.21,408.65c-.2.1-.09.77-.78,2.64a23.53,23.53,0,0,1-3.68,5.75c-.82.92.87.5,1.19.45s-4.52,3.83-4.45,5,4.2-2.36,4.12-1.77-3.33,3.17-3.43,4,.41.79.41.79-4.79,5.27-4.8,6,1.53-.4,1.74-.15-1,1.7,0,1.7,1.64-.82.22,1.68c-.58,1-1.31,1.76-1.67,2.44s.77.75,1.41.5c1.57-.62-5.09,6.53-5.16,7.53s1.84.18,2.7-.31-3,3.05-2.76,4.09,2.11.2,2.11.2-5.24,4.44-5.3,5.27c-.42,6.36,29.64,7,33.83,2.19.78-.88-3.14-4.06-3.14-4.06s0,.08,1,.11-3.06-4.73-3.06-4.73,1.79.85,1.75-.22-3.31-4.64-3.31-4.64a15.11,15.11,0,0,0,2.87,1.68c1.34.54,1.1-.42-.18-2.73s-2.41-4.53-2.41-4.53,2.76,1.52,2,0-4.79-5.85-4.79-5.85a6.57,6.57,0,0,0,3,1.33c1.49.12-2.21-5-2.21-5s2.3.41.78-1.87-4.25-5.74-2.73-4.56,3.76.93,2.08-.39-3.82-3.57-2.69-3,2.17,0,1.36-.68-4.14-4.62-4.87-7C442.81,408.39,442.45,408.29,442.21,408.65Z"/><path class="cls-5" d="M413.92,419.2c-.2.1-.09.77-.78,2.64a23.34,23.34,0,0,1-3.69,5.75c-.82.93.87.5,1.19.45s-4.52,3.83-4.45,5,4.21-2.35,4.12-1.77-3.32,3.17-3.43,4,.42.79.42.79-4.79,5.27-4.81,6,1.53-.4,1.75-.14-1,1.69,0,1.69,1.65-.81.23,1.68c-.59,1-1.32,1.76-1.68,2.44s.77.75,1.41.5c1.57-.61-5.08,6.53-5.16,7.53s1.84.18,2.71-.3-3,3-2.77,4.08,2.12.2,2.12.2-5.25,4.44-5.3,5.27c-.42,6.36,29.64,7,33.83,2.2.77-.89-3.15-4.07-3.15-4.07s0,.08,1,.12-3.07-4.74-3.07-4.74,1.79.85,1.76-.22-3.31-4.64-3.31-4.64a15.11,15.11,0,0,0,2.87,1.68c1.34.54,1.09-.42-.19-2.73s-2.41-4.53-2.41-4.53,2.77,1.52,2.06,0-4.8-5.85-4.8-5.85a6.63,6.63,0,0,0,3,1.33c1.49.12-2.22-5-2.22-5s2.3.42.78-1.87-4.25-5.74-2.72-4.55,3.75.92,2.08-.4-3.83-3.57-2.69-3,2.17,0,1.35-.68-4.13-4.62-4.86-7C414.51,418.94,414.15,418.83,413.92,419.2Z"/><path class="cls-5" d="M367.48,423.44c-.19.11-.09.77-.78,2.64a23.34,23.34,0,0,1-3.68,5.75c-.82.93.87.51,1.19.45s-4.52,3.83-4.45,5,4.2-2.35,4.12-1.77-3.32,3.18-3.43,4,.41.78.41.78-4.79,5.27-4.8,6,1.53-.4,1.74-.14-1,1.69,0,1.7,1.64-.82.23,1.67c-.59,1-1.32,1.76-1.68,2.44s.77.75,1.41.5c1.57-.61-5.09,6.53-5.16,7.53s1.84.18,2.7-.3-3,3-2.76,4.08,2.11.21,2.11.21-5.24,4.43-5.3,5.27c-.42,6.35,29.64,6.95,33.83,2.19.78-.89-3.14-4.07-3.14-4.07s0,.08,1,.12-3.06-4.74-3.06-4.74,1.79.85,1.75-.22-3.31-4.64-3.31-4.64a15.5,15.5,0,0,0,2.87,1.69c1.34.53,1.1-.43-.18-2.74s-2.41-4.53-2.41-4.53,2.76,1.52,2.05,0-4.79-5.85-4.79-5.85a6.65,6.65,0,0,0,3,1.34c1.49.11-2.21-5-2.21-5s2.3.42.78-1.87-4.25-5.74-2.73-4.55,3.76.92,2.08-.39-3.82-3.58-2.68-3,2.16,0,1.35-.68-4.14-4.62-4.86-7C368.08,423.18,367.72,423.08,367.48,423.44Z"/><path class="cls-5" d="M352,399.14c-.2.11-.09.77-.79,2.64a23.61,23.61,0,0,1-3.68,5.76c-.82.92.87.5,1.19.44s-4.52,3.83-4.45,5,4.21-2.35,4.12-1.77-3.32,3.18-3.43,4,.42.78.42.78-4.79,5.27-4.81,6,1.53-.4,1.75-.14-1,1.69,0,1.7,1.65-.82.23,1.67c-.59,1-1.32,1.77-1.68,2.44s.77.75,1.41.5c1.57-.61-5.08,6.54-5.16,7.53s1.84.18,2.71-.3-3,3-2.77,4.08,2.12.21,2.12.21-5.25,4.43-5.31,5.27c-.41,6.36,29.64,7,33.83,2.19.78-.89-3.14-4.07-3.14-4.07s0,.08,1,.12-3.07-4.74-3.07-4.74,1.79.85,1.76-.22-3.31-4.64-3.31-4.64a15.25,15.25,0,0,0,2.86,1.69c1.34.54,1.1-.43-.18-2.74s-2.41-4.53-2.41-4.53,2.76,1.52,2.06,0-4.8-5.86-4.8-5.86a6.72,6.72,0,0,0,3,1.34c1.49.11-2.22-5-2.22-5s2.3.42.78-1.87-4.25-5.74-2.72-4.55,3.75.92,2.08-.39-3.83-3.58-2.69-3,2.17,0,1.35-.69-4.14-4.62-4.86-7C352.55,398.88,352.19,398.78,352,399.14Z"/><path class="cls-5" d="M332.48,411.91c-.19.1-.09.77-.78,2.64A23.53,23.53,0,0,1,328,420.3c-.82.93.87.5,1.19.45s-4.52,3.83-4.45,5,4.21-2.35,4.12-1.77-3.32,3.17-3.43,4,.41.79.41.79-4.78,5.27-4.8,6,1.53-.4,1.75-.14-1,1.69,0,1.69,1.64-.82.23,1.68c-.59,1-1.32,1.76-1.68,2.44s.77.75,1.41.5c1.57-.61-5.08,6.53-5.16,7.53s1.84.18,2.71-.31-3,3.05-2.77,4.09,2.12.2,2.12.2-5.25,4.44-5.31,5.27c-.41,6.36,29.64,7,33.83,2.19.78-.88-3.14-4.06-3.14-4.06s0,.08,1,.11-3.07-4.73-3.07-4.73,1.79.85,1.75-.22-3.31-4.64-3.31-4.64a15.5,15.5,0,0,0,2.87,1.69c1.34.53,1.1-.43-.18-2.74s-2.41-4.53-2.41-4.53,2.76,1.52,2.06,0-4.8-5.85-4.8-5.85a6.72,6.72,0,0,0,3,1.34c1.49.11-2.22-5-2.22-5s2.3.42.78-1.87-4.25-5.74-2.73-4.55,3.76.92,2.09-.4-3.83-3.57-2.69-3,2.17,0,1.35-.68-4.14-4.62-4.86-7C333.08,411.65,332.72,411.55,332.48,411.91Z"/></g><path class="cls-5" d="M750,500V423.43c-47.38-8.54-100.11-14.41-143.53-10-107.26,10.9-175.08,42.25-304.42,19.08C184.5,411.46,104.74,399.41,0,414.79V500Z"/><path class="cls-6" d="M21.63,412c94.45-10.82,171.09,1,280.42,20.56,41.42,7.42,76.52,9.25,108.64,8,14.46,3.23,31,6.36,53.14,9.31,82.81,11,82.81-11.83,150.63-18.93s93.85,5.52,89.91,11-33.13-13.4-127.76,11.83-148.27,7.89-231.08-3.94c-.61-.09-29.22-12.44-63.07-3.16-35,9.59,48.42,19.59,49.27,19.72,78.08,11.83,82,0,67.43,10.25s-84,3.16-157.73-2.36S134.18,466,84.89,469.89s-34.7-8.28,26.42-9.07,85.17.4,75.71-7.1c-2.12-1.67-25.11-.48-29.16-1.29-18.89-3.78-35-1.86-48.92-1.86-42.59,0-43.62-17-42.19-25.24,1.18-6.82-16.28-7.8-46.71-6.23C7.79,419.73,1.9,414.21,21.63,412Z"/><path class="cls-7" d="M200.76,350c15.64-11.14,24.08-17,28.57-20,18.2-12.32-26.08,29.12-27.39,30.48C201.94,360.46,193.27,351.59,200.76,350Z"/><path class="cls-7" d="M215.75,339.56c1.07-6.15,1.42-10.1,1.8-12.28,1.73-9.85,1.13,10.82,1.15,11.79C218.7,339.07,217.13,341.43,215.75,339.56Z"/><path class="cls-5" d="M164.22,337.52c-9,.57-18.7,5.87-29.65,14.52-32.56,25.74-41,87.38,32.94,87.54,27.33.06,58-12.32,58-41.85C225.47,379.11,200.42,335.25,164.22,337.52Z"/><path class="cls-8" d="M164.22,337.52c-9,.57-18.7,5.87-29.65,14.52-32.56,25.74-41,87.38,32.94,87.54,12.18,0,25-2.42,35.49-7.75-10.27,1.36-23.93,1.94-37-1.38-25.64-6.5-21.69-32.92-19.33-45.15S152,364,166.8,363.81a36,36,0,0,0,29.62-15.64C187.3,341.22,176.39,336.76,164.22,337.52Z"/><path class="cls-8" d="M116.58,418.07c-14.8.56-28.88,9.84-28.88,16.28,0,14.71,50.36,13.44,52.14,1.93C140.82,429.9,131.39,417.51,116.58,418.07Z"/><path class="cls-5" d="M116.58,418.07a43.55,43.55,0,0,0-16.87,4.27c-2.59,2.33-4.12,4.76-4.12,6.89,0,11.17,29.06,13.12,43.8,8.37a4.59,4.59,0,0,0,.45-1.32C140.82,429.9,131.39,417.51,116.58,418.07Z"/><path class="cls-5" d="M212,418.07c14.81.56,24.94,9.84,24.94,16.28,0,7-50.36,13.44-52.13,1.93C183.79,429.9,197.17,417.51,212,418.07Z"/><path class="cls-5" d="M143.7,443.94c0,3.8,34.67,3.86,35.12.9.15-.95-5.36-2.26-10.82-3.19C161.89,440.61,143.7,440.26,143.7,443.94Z"/><path class="cls-9" d="M139.12,338.21c-1.19.19-2.17,1.57-1.38,5.52s-3.72,5.07-3,6.9c2.95,7.08,19.29,11.15,33.56,9.83a47,47,0,0,0,24.33-9.83c7.07-5.68,1.06-7.55-.12-9.47-1-1.55-.79-3.83-1.28-5.39a3.7,3.7,0,0,0-1.48-1.7S156.07,344.91,139.12,338.21Z"/><path class="cls-10" d="M139.12,338.21c-1.19.19-2.17,1.57-1.38,5.52s-3.72,5.07-3,6.9c.94,2.26,3.24,4.21,6.41,5.78a151.84,151.84,0,0,1,9-16.09A35.22,35.22,0,0,1,139.12,338.21Z"/><path class="cls-10" d="M139.29,355.36c3.86,2.4,9.6,4.1,15.85,4.87.2-5.18,2.57-12.24,5.25-15.84-9.46-2-12.22,3.35-17.69,7.1A8,8,0,0,0,139.29,355.36Z"/><path class="cls-8" d="M106.54,293.86c-4.66.35-7.23,4.5-7.23,8.46,0,9.06,16.42,8.59,16.42-.69C115.73,297.67,111.2,293.52,106.54,293.86Z"/><path class="cls-5" d="M106.54,293.86a7.35,7.35,0,0,0-5,2.4v.06c0,6.54,10.67,6.89,12.8,1.46A9.17,9.17,0,0,0,106.54,293.86Z"/><path class="cls-8" d="M159,281.74c-19.71,1.46-30.56,19-30.56,35.76,0,38.28,69.4,36.3,69.4-2.92C197.87,297.81,178.74,280.28,159,281.74Z"/><path class="cls-5" d="M159,281.74a30.89,30.89,0,0,0-21.59,10.82,39.83,39.83,0,0,0-4,17.45c0,30.6,44.33,35.47,62.13,16.17a28.55,28.55,0,0,0,2.34-11.6C197.87,297.81,178.74,280.28,159,281.74Z"/><path class="cls-9" d="M182.49,278.07c-3.15-9.86-10.25-18.14-25.63-18.93s-34.31,5.92-45,29.18,5.52-2.76,13.8,2.37,3.55,10.25,8.28,7.1S182.49,278.07,182.49,278.07Z"/><path class="cls-11" d="M108.42,297.83c.55,2.54,11.11-11,17.29-7.14a11.77,11.77,0,0,1,5,5.24,285.75,285.75,0,0,0,28.73-13.15c7.79-3.95,2.56-8.68-7.79-5.52s-11.44,3.15-18.93,1.77-15.57,7.3-21.59,16.37A25.54,25.54,0,0,0,108.42,297.83Z"/><path class="cls-5" d="M131.19,305.28c13.26-11.23,42.56-18.9,52.68-14.59,2.33,1,2.67,1.87,3.74,2,1.55.26,2.73-1,2.34-1.82-.65-1.45-2-2.74-3.12-4.75-3.45-6.32-1.86-9.16-5.49-11.14-2.8-1.52-9.52-3.08-19.1-1.85-13.43,1.72-28.74,7.77-34.24,15.89-1.65,2.43.31,3.48.67,6.76a13.63,13.63,0,0,1-.63,5.44c-.58,1.74-2.18,4.19,1.84,5.33C130.45,306.75,130,306.33,131.19,305.28Z"/><path class="cls-8" d="M131.19,305.28c13.26-11.23,42.56-18.9,52.68-14.59,2.33,1,2.67,1.87,3.74,2,1.55.26,2.73-1,2.34-1.82a12.48,12.48,0,0,0-1.44-2.23c-1.57.56-2.2-1.9-14.61-2.06s-29.48,7-35,9.76-2.67,0-4.24-6.31-2-5.2-1-6.59a23.12,23.12,0,0,0-5.66,5.58c-1.65,2.43.31,3.48.67,6.76a13.63,13.63,0,0,1-.63,5.44c-.58,1.74-2.18,4.19,1.84,5.33C130.45,306.75,130,306.33,131.19,305.28Z"/><path class="cls-10" d="M175.7,323.13c3.49,1.27,38.34-14.89,38.34-14.89L179,306.88C164.94,306.34,171,321.41,175.7,323.13Z"/><path class="cls-9" d="M212.91,308.2,179,306.88c-9.29-.36-9.78,6.15-7.67,11.07a3.75,3.75,0,0,0,.86.45C174.89,319.4,201.56,311.6,212.91,308.2Z"/><path class="cls-12" d="M153.42,320.18a.93.93,0,0,1,1.75-.62c.15.41.32.82.5,1.22a13.66,13.66,0,0,0,9,7.39,17.43,17.43,0,0,0,10.15-.14c.27-.1.54-.21.8-.33a.93.93,0,1,1,.78,1.69c-.28.13-.6.26-1,.39a19.46,19.46,0,0,1-11.28.18,15.43,15.43,0,0,1-10.15-8.4Q153.69,320.91,153.42,320.18Z"/><path class="cls-12" d="M151.87,306.93a.94.94,0,0,1-1,.86.93.93,0,0,1-.85-1,6.22,6.22,0,0,1,2.29-4.47,5,5,0,0,1,2.27-1,4.18,4.18,0,0,1,2.46.41,6,6,0,0,1,2.88,3.87.93.93,0,0,1-1.78.53,4.21,4.21,0,0,0-1.93-2.74,2.27,2.27,0,0,0-1.37-.22,2.86,2.86,0,0,0-1.39.6A4.35,4.35,0,0,0,151.87,306.93Z"/><path class="cls-12" d="M174.74,301.8a.93.93,0,1,1-1.85-.14,5.22,5.22,0,0,1,1.92-3.74,4.11,4.11,0,0,1,1.92-.83,3.49,3.49,0,0,1,2.09.35,5,5,0,0,1,2.42,3.23.93.93,0,0,1-.62,1.16.94.94,0,0,1-1.16-.63,3.27,3.27,0,0,0-1.47-2.11,1.68,1.68,0,0,0-1-.16,2.21,2.21,0,0,0-1,.46A3.35,3.35,0,0,0,174.74,301.8Z"/><path class="cls-7" d="M122.39,368.83c2.81,1.95,9.75-3.85,9.28-7.3-.19-1.46-36.94-18-51.12-23.45C68.08,333.28,119.38,366.74,122.39,368.83Z"/><path class="cls-7" d="M103.34,349.07c-1-2.64-9.12-23-7.13-14.68l3.55,14.81S102.16,351.59,103.34,349.07Z"/><path class="cls-10" d="M179.31,307.66a.48.48,0,0,1,.66,0,.46.46,0,0,1-.05.66,5.22,5.22,0,0,0-1.26,1.65,9.53,9.53,0,0,0-.77,5.13,7.72,7.72,0,0,0,1.36,4,1.83,1.83,0,0,0,.48.39.46.46,0,0,1,.21.62.48.48,0,0,1-.63.21,2.7,2.7,0,0,1-.76-.62,8.57,8.57,0,0,1-1.59-4.5,10.45,10.45,0,0,1,.87-5.63A6.42,6.42,0,0,1,179.31,307.66Z"/><path class="cls-10" d="M185.88,308.25a.47.47,0,0,1,.61.71,3.64,3.64,0,0,0-.86,1.12,6.58,6.58,0,0,0-.53,3.52,5.36,5.36,0,0,0,.93,2.73,1.18,1.18,0,0,0,.29.24.46.46,0,0,1-.41.83,1.9,1.9,0,0,1-.58-.46,6.28,6.28,0,0,1-1.15-3.24,7.5,7.5,0,0,1,.62-4A4.54,4.54,0,0,1,185.88,308.25Z"/><path class="cls-10" d="M192.44,308.85a.47.47,0,0,1,.66,0,.46.46,0,0,1,0,.66,1.94,1.94,0,0,0-.44.58l0,0a3.64,3.64,0,0,0-.27,1.89,2.87,2.87,0,0,0,.49,1.46.27.27,0,0,0,.11.09.47.47,0,0,1,.2.63.46.46,0,0,1-.62.2,1.4,1.4,0,0,1-.39-.31,3.71,3.71,0,0,1-.71-2,4.6,4.6,0,0,1,.36-2.4l0,0A2.68,2.68,0,0,1,192.44,308.85Z"/><path class="cls-10" d="M199.27,309.44a.46.46,0,0,1,.66.05.47.47,0,0,1-.05.65.86.86,0,0,0-.2.26,1.77,1.77,0,0,0-.13,1,1.36,1.36,0,0,0,.22.69h0a.46.46,0,0,1,.21.62.48.48,0,0,1-.63.21,1.18,1.18,0,0,1-.28-.23,2.31,2.31,0,0,1-.44-1.2,2.73,2.73,0,0,1,.23-1.46,1.83,1.83,0,0,1,.42-.54Zm.49,2.6Z"/><path class="cls-10" d="M155.31,350.29a.93.93,0,1,1,.21-1.84,48.87,48.87,0,0,0,16.89-.85,50.48,50.48,0,0,0,11.38-4.19,32.93,32.93,0,0,0,3.05-1.71h0a11.17,11.17,0,0,0,1.88-1.48.93.93,0,0,1,1.34,1.29,12.54,12.54,0,0,1-2.21,1.75h0a33.7,33.7,0,0,1-3.23,1.82,52.55,52.55,0,0,1-11.79,4.34A50.48,50.48,0,0,1,155.31,350.29Z"/><path class="cls-10" d="M155.51,356a.93.93,0,1,1,.21-1.85,56,56,0,0,0,16.93-.41A42.52,42.52,0,0,0,184,350c5.72-2.86,8-5.84,8-5.84a.93.93,0,0,1,1.3-.19.94.94,0,0,1,.18,1.31s-2.49,3.32-8.61,6.38a44.34,44.34,0,0,1-11.83,3.9A58.21,58.21,0,0,1,155.51,356Z"/><path class="cls-9" d="M160.56,345.11c-.55.28-2.36-.39-2.8.2C150.24,355.56,145.43,377,145.62,385c.2,8.48-1.58,8.68-4.93,8.68s-13-1.58-13.21-5.33,6.71-42.29,17.75-48c1.15-.59,4.14,1.88,6.94,2.38C156.27,343.48,159.25,342.13,160.56,345.11Z"/><path class="cls-10" d="M151.22,344.87a.93.93,0,0,1,1.49,1.11c-10.05,13.46-11.84,44.17-11.84,44.26a.93.93,0,0,1-1.86-.11C139,390,140.84,358.78,151.22,344.87Z"/><path class="cls-10" d="M144.62,343.88a.93.93,0,1,1,1.49,1.12c-10.05,13.46-11.84,44.16-11.85,44.25a.93.93,0,1,1-1.85-.11C132.41,389.05,134.23,357.79,144.62,343.88Z"/><path class="cls-13" d="M178,364.53a5.28,5.28,0,0,1,5.16,4.74A4.27,4.27,0,0,1,178.8,374a5.28,5.28,0,0,1-5.16-4.74A4.27,4.27,0,0,1,178,364.53Z"/><path class="cls-10" d="M178.15,366.62a.73.73,0,0,1,.71.66.59.59,0,0,1-.6.66.73.73,0,0,1-.71-.66A.59.59,0,0,1,178.15,366.62Z"/><path class="cls-10" d="M181,369.27a.59.59,0,0,1-.6.65.73.73,0,0,1-.72-.65.59.59,0,0,1,.6-.66A.73.73,0,0,1,181,369.27Z"/><path class="cls-10" d="M178.5,370.6a.72.72,0,0,1,.71.66.59.59,0,0,1-.6.66.73.73,0,0,1-.71-.66A.59.59,0,0,1,178.5,370.6Z"/><path class="cls-10" d="M177.05,369.27a.59.59,0,0,1-.6.65.73.73,0,0,1-.72-.65.59.59,0,0,1,.6-.66A.73.73,0,0,1,177.05,369.27Z"/><path class="cls-10" d="M178.05,365.5a4.1,4.1,0,0,1,2.76,1.1,4.17,4.17,0,0,1,1.34,2.67,3.46,3.46,0,0,1-.87,2.66,3.41,3.41,0,0,1-2.57,1.11,4.06,4.06,0,0,1-2.76-1.11,4.12,4.12,0,0,1-1.34-2.66,3.5,3.5,0,0,1,.87-2.67,3.44,3.44,0,0,1,2.57-1.1Zm2.52,1.37a3.68,3.68,0,0,0-2.49-1,3.07,3.07,0,0,0-2.31,1,3.12,3.12,0,0,0-.79,2.4,3.8,3.8,0,0,0,3.7,3.4,3.08,3.08,0,0,0,3.1-3.4A3.74,3.74,0,0,0,180.57,366.87Z"/><path class="cls-13" d="M181.61,377.83a5.28,5.28,0,0,1,5.16,4.74,4.27,4.27,0,0,1-4.33,4.74,5.28,5.28,0,0,1-5.15-4.74A4.27,4.27,0,0,1,181.61,377.83Z"/><path class="cls-10" d="M181.79,379.92a.74.74,0,0,1,.72.66.6.6,0,0,1-.6.66.73.73,0,0,1-.71-.66A.59.59,0,0,1,181.79,379.92Z"/><path class="cls-10" d="M184.67,382.57a.59.59,0,0,1-.59.66.74.74,0,0,1-.72-.66.6.6,0,0,1,.6-.66A.73.73,0,0,1,184.67,382.57Z"/><path class="cls-10" d="M182.14,383.9a.74.74,0,0,1,.72.66.6.6,0,0,1-.6.66.75.75,0,0,1-.72-.66A.6.6,0,0,1,182.14,383.9Z"/><path class="cls-10" d="M180.7,382.57a.6.6,0,0,1-.6.66.74.74,0,0,1-.72-.66.6.6,0,0,1,.6-.66A.75.75,0,0,1,180.7,382.57Z"/><path class="cls-10" d="M181.7,378.8a4.1,4.1,0,0,1,2.76,1.1,4.17,4.17,0,0,1,1.34,2.67,3.46,3.46,0,0,1-.87,2.66,3.41,3.41,0,0,1-2.57,1.11,4.22,4.22,0,0,1-4.1-3.77,3.5,3.5,0,0,1,.87-2.67,3.44,3.44,0,0,1,2.57-1.1Zm2.52,1.37a3.68,3.68,0,0,0-2.49-1,3.06,3.06,0,0,0-3.1,3.4,3.8,3.8,0,0,0,3.7,3.4,3.06,3.06,0,0,0,3.09-3.4A3.68,3.68,0,0,0,184.22,380.17Z"/><path class="cls-8" d="M236.3,431.45C216,440.81,195.54,439,193.85,428a8.34,8.34,0,0,1,1.65-5.47c-5,3-8.76,7-10.17,10.36a6.38,6.38,0,0,0-.55,3.39,3.84,3.84,0,0,0,.58,1.54c5.93,9.35,51.55,3.21,51.55-3.47A7.86,7.86,0,0,0,236.3,431.45Z"/><path class="cls-5" d="M93.31,411.75c3.81.15,7.44,2.54,7.44,4.2,0,3.79-24.81,4.64-25.27,1.68C75.23,416,89.49,411.61,93.31,411.75Z"/><polygon class="cls-7" points="612.31 371.71 601.21 371.71 598.71 371.71 585.47 433.62 628.05 433.62 614.81 371.71 612.31 371.71"/><path class="cls-14" d="M610,117.43c-1.12.6-.51,4.37-4.45,15-4.27,11.58-16.29,27.5-21,32.76s4.95,2.85,6.77,2.55S565.61,189.61,566,196.16s24-13.42,23.49-10.09-18.94,18.09-19.54,23,2.35,4.46,2.35,4.46-27.28,30-27.37,34.06,8.72-2.25,10-.8-5.92,9.65.15,9.67,9.35-4.66,1.28,9.54c-3.35,5.91-7.5,10-9.56,13.91-1.93,3.61,4.38,4.25,8,2.83,9-3.49-29,37.23-29.4,42.89-.39,4.92,10.48,1,15.41-1.72S524,341.24,525.06,347.17s12.05,1.16,12.05,1.16-29.89,25.24-30.2,30c-.69,10.41,13,18.11,33.35,23.15,4.68,1.16,8.53,4.35,13.83,5.22,51.88,8.61,130.09,1.66,145.52-15.9,4.44-5.05-17.91-23.17-17.91-23.17s.19.46,5.79.67-17.46-27-17.46-27,10.19,4.84,10-1.25-18.85-26.41-18.85-26.41,8.71,6.52,16.34,9.59,6.25-2.44-1-15.59-13.73-25.79-13.73-25.79,15.73,8.64,11.7-.22-27.3-33.36-27.3-33.36,8.67,7,17.16,7.63-12.61-28.63-12.61-28.63,13.08,2.37,4.43-10.67S631.91,184,640.6,190.71,662,196,652.46,188.49s-21.8-20.35-15.32-16.92,12.36.06,7.72-3.9S621.28,141.34,617.15,128C613.42,115.93,611.36,115.35,610,117.43Z"/><path class="cls-15" d="M607.93,97.55l-.69,2c-4.62.68-8.86,1.38-11.73,1.94-9.3,1.67-5,3.71,1.87,6.36,2.28.89,3.86.75,6,1.5-6.13,18.37-3.51,18.44.79,14.54,2.64-2.4,6.17-7.08,7.92-7.61,2.58-.79,4.16.82,10.81,5.72,6,4.45,3.23-4-.51-14.13,5.45-3.26,11.51-7.5,12-9.9.25-1.3-7.24-.88-16,.12-.46-1-.92-2-1.37-2.85C611.27,83.81,611.08,88.45,607.93,97.55Z"/><path class="cls-13" d="M594.64,152.33a3,3,0,0,1,3.14-5.14,27.23,27.23,0,0,0,14.32,4,36.41,36.41,0,0,0,16.24-4,3,3,0,1,1,2.71,5.38,42.45,42.45,0,0,1-18.95,4.67A33.15,33.15,0,0,1,594.64,152.33Z"/><path class="cls-13" d="M573.75,203.16a3,3,0,1,1,4.15-4.37C590,210.35,602.56,218,613.61,220.9a31.17,31.17,0,0,0,13.82.76,19.15,19.15,0,0,0,10.31-5.6c2.9-3.05,5.16-7.3,6.6-12.87a3,3,0,1,1,5.83,1.51c-1.71,6.61-4.48,11.74-8.07,15.51a25,25,0,0,1-13.51,7.37,37,37,0,0,1-16.49-.85C600.08,223.62,586.59,215.41,573.75,203.16Z"/><path class="cls-13" d="M555.34,267a3,3,0,0,1,3.52-4.88,101.48,101.48,0,0,0,9.07,5.81c19.8,11.2,39.11,12.64,54.71,9.54,15.42-3.06,27.08-10.46,31.91-17.17.34-.49.66-1,.94-1.48a3,3,0,0,1,5.24,3,21.84,21.84,0,0,1-1.3,2c-5.56,7.74-18.64,16.21-35.63,19.59-16.81,3.34-37.59,1.8-58.85-10.23A104.55,104.55,0,0,1,555.34,267Z"/><path class="cls-13" d="M541.74,303a3,3,0,1,1,3.82-4.64c23.79,19.52,45.87,31.15,66.53,35.1,20.39,3.91,39.48.31,57.56-10.59a3,3,0,1,1,3.11,5.17c-19.39,11.69-39.89,15.55-61.8,11.35C589.3,335.25,566.34,323.2,541.74,303Z"/><path class="cls-16" d="M571.82,212.58c8.14,2.16,12.51-5.41,8.92,6.58-3.12,10.41,11.33,1.06,12.59,1.82.87,4.4-2.32,7.61,4.52,7.08l-.06,0a3.74,3.74,0,0,1,1.54-.22c-3.28,3.3-8,2.17-8.17-3.56a14.82,14.82,0,0,1-5.53,2.75c-9.62,1.83-9.16-4.2-8.12-9.73-2.31.57-4.14.29-7.53-.46a2.33,2.33,0,1,1,1.84-4.28Zm8.87,3.61a3,3,0,0,0,.59-.26Z"/><path class="cls-16" d="M644.94,192.71c-7.38-2.18-7.2-10.18-10.09.9-2.52,9.61-9.35-4.56-10.7-4.57-2.78,3-1.81,7.05-6.91,3.38l0,.05a3.34,3.34,0,0,0-1.09-.91c1,4.13,5.23,5.51,8.07,1.1a13.56,13.56,0,0,0,3,4.78c6.64,6,9.15,1.09,11-3.73,1.53,1.54,3.09,2.19,6.09,3.22a2.13,2.13,0,0,0,.6-4.22Zm-8.64-1.4a2,2,0,0,1-.33-.48Z"/><path class="cls-16" d="M669,318.27c-10.71-6-9.26-16.67-13.58-.14-3.75,14.34-13.95-6.81-16-6.82-4.14,4.52-2.7,10.52-10.3,5l.05.07a5,5,0,0,0-1.63-1.35c1.48,6.17,7.81,8.22,12,1.65,1.16,2.59,2.35,5.19,4.5,7.13,9.91,9,13.66,1.61,16.37-5.57,2.29,2.3,4.63,3.27,9.1,4.8,1.74.24,6,.95,6.26-.78S670.82,319.37,669,318.27Z"/><path class="cls-16" d="M537.24,346c10.71-6,9.26-16.67,13.58-.15,3.75,14.35,13.95-6.8,16-6.81,4.13,4.51,2.69,10.51,10.29,5l-.05.07a5,5,0,0,1,1.63-1.35c-1.48,6.17-7.81,8.22-12,1.64-1.16,2.6-2.35,5.19-4.5,7.14-9.91,9-13.66,1.61-16.37-5.58-2.29,2.3-4.63,3.28-9.1,4.8-1.74.25-6,1-6.26-.78S535.4,347.08,537.24,346Z"/><path class="cls-16" d="M565.64,253.57c8.3-4.67,7.17-12.92,10.52-.12,2.91,11.12,10.81-5.27,12.37-5.28,3.21,3.5,2.09,8.15,8,3.91l0,0a3.91,3.91,0,0,1,1.26-1c-1.15,4.78-6.05,6.37-9.33,1.27a15.82,15.82,0,0,1-3.48,5.53c-7.68,6.94-10.58,1.25-12.69-4.32-1.77,1.78-3.58,2.53-7.05,3.72-1.35.19-4.66.74-4.85-.61S564.21,254.42,565.64,253.57Z"/><path class="cls-16" d="M677.39,363.4c-13.38-7.53-11.57-20.83-17-.18-4.69,17.93-17.44-8.5-19.95-8.52-5.17,5.64-3.37,13.14-12.87,6.31l.07.08a6.37,6.37,0,0,0-2-1.69c1.85,7.71,9.76,10.27,15,2.06,1.45,3.24,2.93,6.48,5.62,8.91,12.38,11.2,17.06,2,20.46-7,2.86,2.87,5.78,4.09,11.37,6,2.17.31,7.51,1.2,7.82-1S679.69,364.78,677.39,363.4Z"/><path class="cls-13" d="M519.9,362.81a3,3,0,1,1,5.12-3.16,45.43,45.43,0,0,0,7.75,9.45c15.7,14.58,40.92,17.16,66.13,13.72,25.58-3.49,51-13.15,66.76-22.85a56.59,56.59,0,0,0,11.6-9,3,3,0,0,1,4.41,4.11,62.4,62.4,0,0,1-12.85,10c-16.35,10.07-42.7,20.1-69.12,23.7-26.79,3.66-53.79.73-71-15.28A51.49,51.49,0,0,1,519.9,362.81Z"/><path class="cls-16" d="M588.92,167.4c5.19-1.53,5.06-7.15,7.1.63,1.76,6.76,6.57-3.2,7.52-3.21,2,2.13,1.27,5,4.85,2.38l0,0a2.27,2.27,0,0,1,.77-.63c-.7,2.9-3.68,3.87-5.67.77a9.68,9.68,0,0,1-2.12,3.36c-4.67,4.22-6.43.76-7.71-2.62-1.08,1.08-2.18,1.54-4.29,2.26a1.5,1.5,0,0,1-.42-3Z"/><path class="cls-17" d="M554.19,269a.76.76,0,0,1,.12-1.51c8.74.7,13.14,5.11,17.32,9.31,1,1,2,2.06,3.15,3a24.62,24.62,0,0,0,9.76,5.26,23.45,23.45,0,0,0,10.9.32c2.37-.48,4.81-1.81,7.55-3.29,6.66-3.62,15-8.16,29.22-4.81,9.1,2.16,16.14,2.13,21.35.62,5.86-1.69,9.39-5.27,10.91-9.71a.75.75,0,1,1,1.42.48c-1.67,4.9-5.53,8.83-11.91,10.68-5.45,1.58-12.75,1.62-22.11-.6-13.62-3.22-21.72,1.17-28.16,4.66-2.84,1.54-5.36,2.91-8,3.44a25.08,25.08,0,0,1-11.6-.33,26.13,26.13,0,0,1-10.37-5.59c-1.09-1-2.15-2-3.22-3.1C566.57,273.81,562.38,269.6,554.19,269Z"/><path class="cls-18" d="M570.39,277.6a2.05,2.05,0,1,1-3,.79A2.19,2.19,0,0,1,570.39,277.6Z"/><path class="cls-13" d="M569.5,279.38c1.07.53,2.15,4.11.65,7.11s-5.37,4.09-6.09,3.73-2.14-4.11-.64-7.11S568.44,278.84,569.5,279.38Z"/><path class="cls-5" d="M567.61,280.91a.2.2,0,1,1,.37.17,9.32,9.32,0,0,1-1.46,2.15,3.31,3.31,0,0,1,1.13.51,1.56,1.56,0,0,1,.2.16,4.68,4.68,0,0,1,.25-1.43l.48-1.26a.19.19,0,0,1,.26-.09.2.2,0,0,1,.09.27s0,0-.45,1.22a4.81,4.81,0,0,0-.23,1.68,3.7,3.7,0,0,1,.62,1,1.78,1.78,0,0,1,.15.58.56.56,0,0,1-.16.47.4.4,0,0,1-.24.1l-.16,0h0a1,1,0,0,1-.41-.61,5.39,5.39,0,0,1-.17-1,3,3,0,0,1,0-.31,4.15,4.15,0,0,0-.44-.38,3,3,0,0,0-1.21-.48,7.61,7.61,0,0,1-.76.64,2,2,0,0,1-.58.3h0a.47.47,0,0,1-.51-.1.45.45,0,0,1-.1-.35.86.86,0,0,1,.15-.45,1.18,1.18,0,0,1,.63-.41,2.85,2.85,0,0,1,.85-.09l.18,0a8.47,8.47,0,0,0,1.56-2.24Zm-2.4,3q.21-.15.45-.36a2.18,2.18,0,0,0-.53.08.71.71,0,0,0-.41.26.36.36,0,0,0-.08.23v.07l.1,0h0a2.17,2.17,0,0,0,.46-.25Zm3.29,1.53a3.64,3.64,0,0,0-.2-.39,3.16,3.16,0,0,0,.13.63.77.77,0,0,0,.17.35.3.3,0,0,0,0-.14A1.6,1.6,0,0,0,568.5,285.42Z"/><path class="cls-18" d="M588.51,284.19a2.05,2.05,0,1,1-2.72,1.44A2.18,2.18,0,0,1,588.51,284.19Z"/><path class="cls-15" d="M588,286.12c1.16.28,3,3.52,2.25,6.78s-4.3,5.21-5.08,5-3-3.52-2.24-6.78S586.89,285.84,588,286.12Z"/><path class="cls-5" d="M586.55,288a.2.2,0,0,1,.24-.15.21.21,0,0,1,.16.24,9.52,9.52,0,0,1-.93,2.42,3.34,3.34,0,0,1,1.21.24l.23.11a4.88,4.88,0,0,1-.08-1.45c.18-1.3.18-1.33.18-1.33a.19.19,0,0,1,.24-.15.2.2,0,0,1,.15.24l-.17,1.29a4.8,4.8,0,0,0,.16,1.68,3.8,3.8,0,0,1,.83.82,1.77,1.77,0,0,1,.27.53.57.57,0,0,1,0,.5.41.41,0,0,1-.21.15.43.43,0,0,1-.16,0h0a.94.94,0,0,1-.53-.51,4.85,4.85,0,0,1-.41-1,2.45,2.45,0,0,1-.08-.29,2.93,2.93,0,0,0-1.81-.47,5.06,5.06,0,0,1-.59.79,2.09,2.09,0,0,1-.5.44h0a.45.45,0,0,1-.53,0,.44.44,0,0,1-.17-.32.79.79,0,0,1,0-.46,1.19,1.19,0,0,1,.52-.55,2.76,2.76,0,0,1,.81-.28l.18,0a8.87,8.87,0,0,0,1-2.54Zm-1.66,3.45c.11-.13.23-.28.35-.45a2.17,2.17,0,0,0-.49.19.76.76,0,0,0-.34.35.47.47,0,0,0,0,.24s0,.06,0,.07l.09-.05h0a2,2,0,0,0,.4-.35Zm3.55.74a2.73,2.73,0,0,0-.28-.33,2.62,2.62,0,0,0,.27.58.81.81,0,0,0,.24.31.27.27,0,0,0,0-.15A1.88,1.88,0,0,0,588.44,292.23Z"/><path class="cls-18" d="M606,282.09a2.05,2.05,0,1,1-1.63,2.61A2.18,2.18,0,0,1,606,282.09Z"/><path class="cls-13" d="M606.53,284c1.14-.34,4.38,1.54,5.32,4.76s-1.13,6.65-1.9,6.88-4.38-1.55-5.32-4.76S605.39,284.33,606.53,284Z"/><path class="cls-5" d="M606.19,286.41a.21.21,0,1,1,.39-.13,9.25,9.25,0,0,1,.4,2.57,3.27,3.27,0,0,1,1.16-.4l.26,0a4.85,4.85,0,0,1-.79-1.22c-.49-1.21-.51-1.24-.51-1.24a.2.2,0,0,1,.14-.25.2.2,0,0,1,.25.14l.5,1.2a4.72,4.72,0,0,0,1,1.38,3.45,3.45,0,0,1,1.12.3,1.87,1.87,0,0,1,.51.32.54.54,0,0,1,.2.46.37.37,0,0,1-.1.23.38.38,0,0,1-.13.09h0a.87.87,0,0,1-.71-.17A4.33,4.33,0,0,1,609,289l-.22-.21a2.82,2.82,0,0,0-.58,0,3.08,3.08,0,0,0-1.23.47,5.21,5.21,0,0,1-.11,1,2.56,2.56,0,0,1-.21.63h0a.47.47,0,0,1-.44.27.48.48,0,0,1-.32-.19.8.8,0,0,1-.19-.43,1.16,1.16,0,0,1,.18-.72,2.45,2.45,0,0,1,.57-.65l.14-.11a8.86,8.86,0,0,0-.39-2.7Zm.28,3.81c0-.17.06-.35.08-.56a1.75,1.75,0,0,0-.33.41.75.75,0,0,0-.13.47.43.43,0,0,0,.1.23l0,0s0,0,0-.08h0a2,2,0,0,0,.17-.5Zm3.45-1.12a3.91,3.91,0,0,0-.41-.15,3,3,0,0,0,.52.37.72.72,0,0,0,.37.15.36.36,0,0,0-.09-.12A1.65,1.65,0,0,0,609.92,289.1Z"/><path class="cls-18" d="M625.53,276.14a2.05,2.05,0,1,1-1.93,2.39A2.18,2.18,0,0,1,625.53,276.14Z"/><path class="cls-15" d="M625.86,278.1c1.18-.2,4.17,2,4.73,5.35s-1.91,6.47-2.69,6.61-4.17-2.05-4.73-5.35S624.69,278.3,625.86,278.1Z"/><path class="cls-5" d="M625.25,280.45a.2.2,0,0,1,.16-.24.2.2,0,0,1,.23.16,9.22,9.22,0,0,1,.1,2.6,3.16,3.16,0,0,1,1.2-.26h.27a4.47,4.47,0,0,1-.65-1.29l-.36-1.3a.2.2,0,1,1,.39-.06s0,0,.36,1.25a4.74,4.74,0,0,0,.81,1.48,3.81,3.81,0,0,1,1.08.43,1.83,1.83,0,0,1,.46.38.55.55,0,0,1,.15.48.42.42,0,0,1-.27.29h0a1,1,0,0,1-.69-.25,5.59,5.59,0,0,1-.75-.73l-.19-.23a2.78,2.78,0,0,0-.58-.05,3,3,0,0,0-1.27.33,6.17,6.17,0,0,1-.23,1,2,2,0,0,1-.28.59h0a.46.46,0,0,1-.47.22.43.43,0,0,1-.29-.22.82.82,0,0,1-.14-.45,1.15,1.15,0,0,1,.26-.7,2.58,2.58,0,0,1,.64-.58l.15-.09a8.71,8.71,0,0,0-.06-2.73Zm-.18,3.82a3.63,3.63,0,0,0,.15-.55,2.23,2.23,0,0,0-.38.37.84.84,0,0,0-.18.45.43.43,0,0,0,.08.24s0,.05,0,.05l.06-.07h0a1.65,1.65,0,0,0,.23-.48Zm3.56-.71a3.55,3.55,0,0,0-.39-.2,4.49,4.49,0,0,0,.47.44c.17.12.29.19.35.18a.27.27,0,0,0-.07-.13A1.67,1.67,0,0,0,628.63,283.56Z"/><path class="cls-18" d="M647.55,279.48a2.06,2.06,0,1,1-.9,2.95A2.18,2.18,0,0,1,647.55,279.48Z"/><path class="cls-13" d="M648.59,281.18c1-.63,4.63.34,6.38,3.2s.64,6.72,0,7.14-4.63-.35-6.38-3.2S647.57,281.8,648.59,281.18Z"/><path class="cls-5" d="M648.89,283.59a.2.2,0,1,1,.34-.22,9.3,9.3,0,0,1,1.06,2.37,3.53,3.53,0,0,1,1-.69l.24-.09a4.89,4.89,0,0,1-1.08-1l-.81-1.07a.19.19,0,0,1,.06-.27.21.21,0,0,1,.28.06l.79,1a4.92,4.92,0,0,0,1.3,1.08,3.84,3.84,0,0,1,1.17,0,1.91,1.91,0,0,1,.57.18.58.58,0,0,1,.32.39.39.39,0,0,1,0,.25.38.38,0,0,1-.1.12h0a.91.91,0,0,1-.74,0,4.5,4.5,0,0,1-1-.39l-.27-.15a4,4,0,0,0-.56.17,3.2,3.2,0,0,0-1.05.78,6.92,6.92,0,0,1,.15,1,2.06,2.06,0,0,1,0,.65v0a.47.47,0,0,1-.36.38.49.49,0,0,1-.35-.1.8.8,0,0,1-.29-.37,1.06,1.06,0,0,1,0-.75,2.58,2.58,0,0,1,.37-.77l.11-.14a8.7,8.7,0,0,0-1.08-2.51Zm1.27,3.61c0-.17,0-.36-.07-.56a1.67,1.67,0,0,0-.21.48.74.74,0,0,0,0,.49.45.45,0,0,0,.15.19l.06,0a.25.25,0,0,0,0-.09h0a1.65,1.65,0,0,0,0-.53Zm3-2a2,2,0,0,0-.44,0,3.26,3.26,0,0,0,.61.22.64.64,0,0,0,.39,0,.35.35,0,0,0-.12-.09A1.55,1.55,0,0,0,653.19,285.22Z"/><path class="cls-5" d="M603.77,174.64a7,7,0,0,1,.41-3,2.29,2.29,0,0,1,.62-.92,1.16,1.16,0,0,1,1.05-.28,1.63,1.63,0,0,1,.74.43c.95.91.1,2.24-.81,3.19a8.66,8.66,0,0,1-.82.76c-.39.34-.83.41-1,.29a.44.44,0,0,1-.2-.51Zm.82-.77a2.47,2.47,0,0,0,1.38-1.19c.43-.87.23-1.92-.58-1.24A3.25,3.25,0,0,0,604.59,173.87Z"/><path class="cls-18" d="M604,179a2.51,2.51,0,1,0-2.51-2.51A2.51,2.51,0,0,0,604,179Z"/><path class="cls-15" d="M602.4,195.19a9.38,9.38,0,1,0-9.38-9.38A9.4,9.4,0,0,0,602.4,195.19Z"/><path class="cls-13" d="M602.42,176.43a22.18,22.18,0,0,0-3.8,8.35,34.63,34.63,0,0,0-1,9.11,9.39,9.39,0,0,1-3-2.77,37.69,37.69,0,0,1,1-7.06,28.53,28.53,0,0,1,2.5-6.63,9.33,9.33,0,0,1,4.21-1Zm-3.09,18.24a9.38,9.38,0,0,0,3,.52,34.35,34.35,0,0,1,1-9.45A22.53,22.53,0,0,1,607,177.6a9.48,9.48,0,0,0-3-1,26.33,26.33,0,0,0-3.61,8.46,37.29,37.29,0,0,0-1,9.65Zm4.68.38a37.43,37.43,0,0,1,1.06-8.43,27.07,27.07,0,0,1,3.32-8,9.15,9.15,0,0,1,2.06,2.41,24.42,24.42,0,0,0-2.45,6.34,34,34,0,0,0-1,6.62A9.36,9.36,0,0,1,604,195.05Z"/><path class="cls-5" d="M583.9,234.48a5.82,5.82,0,0,0-.73-2.32,2,2,0,0,0-.62-.65,1,1,0,0,0-.88-.07,1.23,1.23,0,0,0-.54.44c-.64.86.23,1.81,1.09,2.45a7.18,7.18,0,0,0,.76.49c.36.22.72.22.83.1a.36.36,0,0,0,.09-.44Zm-.76-.5a2,2,0,0,1-1.27-.77c-.46-.64-.45-1.5.29-1.07A2.64,2.64,0,0,1,583.14,234Z"/><path class="cls-18" d="M584.16,233.5a2,2,0,1,1-1.66,2.35A2,2,0,0,1,584.16,233.5Z"/><path class="cls-15" d="M589.19,252.3a9.38,9.38,0,1,0-9.38-9.37A9.4,9.4,0,0,0,589.19,252.3Z"/><path class="cls-13" d="M583.73,235.3A81.84,81.84,0,0,0,597,237.75a9.61,9.61,0,0,1,1.34,3.15,85.42,85.42,0,0,1-17-3.15,9.33,9.33,0,0,1,2.36-2.45Zm-3.27,4.18a9.59,9.59,0,0,0-.64,3,89.9,89.9,0,0,0,18.42,2.94,9.39,9.39,0,0,0,.33-2.44c0-.19,0-.37,0-.55a86.36,86.36,0,0,1-18.09-2.9Zm-.48,5.2a87.41,87.41,0,0,0,17.46,2.71,9.49,9.49,0,0,1-2.38,2.85,91.12,91.12,0,0,1-13.66-2.09A9.23,9.23,0,0,1,580,244.68Z"/><path class="cls-5" d="M616.94,307.13a6.14,6.14,0,0,0-.79-2.5,2.2,2.2,0,0,0-.67-.71,1,1,0,0,0-1-.08,1.36,1.36,0,0,0-.58.48c-.69.93.25,1.95,1.18,2.64.3.22.59.41.81.54.39.23.78.23.9.1a.38.38,0,0,0,.1-.47Zm-.82-.55a2.08,2.08,0,0,1-1.37-.82c-.5-.69-.49-1.63.31-1.15A2.8,2.8,0,0,1,616.12,306.58Z"/><path class="cls-18" d="M617.22,306.07a2.2,2.2,0,1,1-1.8,2.53A2.19,2.19,0,0,1,617.22,306.07Z"/><path class="cls-15" d="M622.44,325.19a9.38,9.38,0,1,0-9.38-9.37A9.39,9.39,0,0,0,622.44,325.19Z"/><path class="cls-13" d="M617,308.19a81.65,81.65,0,0,0,13.28,2.45,9.39,9.39,0,0,1,1.33,3.15,85.34,85.34,0,0,1-17-3.15,9.17,9.17,0,0,1,2.36-2.45Zm-3.27,4.18a9.59,9.59,0,0,0-.64,2.95,89.8,89.8,0,0,0,18.42,2.94,9.38,9.38,0,0,0,.32-2.44c0-.19,0-.37,0-.55a86.36,86.36,0,0,1-18.09-2.9Zm-.49,5.2a87.49,87.49,0,0,0,17.47,2.71,9.52,9.52,0,0,1-2.39,2.85A91.21,91.21,0,0,1,614.65,321,9.42,9.42,0,0,1,613.22,317.57Z"/><path class="cls-5" d="M558.88,314.37a6.24,6.24,0,0,1,.79-2.5,2.15,2.15,0,0,1,.67-.7,1,1,0,0,1,.95-.08,1.29,1.29,0,0,1,.58.48c.69.92-.25,1.95-1.18,2.64a7.77,7.77,0,0,1-.81.53c-.4.23-.78.24-.9.11a.4.4,0,0,1-.1-.48Zm.82-.54a2.13,2.13,0,0,0,1.37-.83c.5-.69.49-1.62-.32-1.15A2.87,2.87,0,0,0,559.7,313.83Z"/><path class="cls-18" d="M558.6,313.31a2.2,2.2,0,1,0,1.8,2.54A2.21,2.21,0,0,0,558.6,313.31Z"/><path class="cls-15" d="M553.38,332.44a9.38,9.38,0,1,0-9.37-9.38A9.39,9.39,0,0,0,553.38,332.44Z"/><path class="cls-13" d="M558.84,315.43a80.69,80.69,0,0,1-13.28,2.46,9.3,9.3,0,0,0-1.33,3.15,84.71,84.71,0,0,0,17-3.16,9.48,9.48,0,0,0-2.36-2.45Zm3.27,4.19a9.59,9.59,0,0,1,.64,2.95,89.8,89.8,0,0,1-18.42,2.94,9.4,9.4,0,0,1-.32-2.45c0-.18,0-.36,0-.55a86.23,86.23,0,0,0,18.09-2.89Zm.49,5.2a87.59,87.59,0,0,1-17.47,2.71,9.38,9.38,0,0,0,2.39,2.85,91.21,91.21,0,0,0,13.65-2.09A9.42,9.42,0,0,0,562.6,324.82Z"/><path class="cls-5" d="M638.06,229.15a5.84,5.84,0,0,0,1.2-2.11,1.88,1.88,0,0,0,0-.9,1,1,0,0,0-.55-.7,1.37,1.37,0,0,0-.69-.09c-1.06.12-1.16,1.4-1,2.47,0,.34.1.66.15.89.09.41.33.68.5.68a.36.36,0,0,0,.38-.24Zm-.15-.9a2,2,0,0,1-.3-1.44c.14-.78.79-1.36,1-.52A2.59,2.59,0,0,1,637.91,228.25Z"/><path class="cls-18" d="M639,228.67a2,2,0,1,1-2.86.39A2,2,0,0,1,639,228.67Z"/><path class="cls-15" d="M642.35,232.39a9.38,9.38,0,1,0-.46,13.25A9.39,9.39,0,0,0,642.35,232.39Z"/><path class="cls-13" d="M637.35,229.59A81.13,81.13,0,0,0,644.61,241a9.29,9.29,0,0,1-1.39,3.12A84.22,84.22,0,0,1,634,229.53a9.25,9.25,0,0,1,3.4.06Zm-5.29.46a9.19,9.19,0,0,0-2.59,1.55,89.1,89.1,0,0,0,10.41,15.47,9.47,9.47,0,0,0,2-1.43l.39-.39a86,86,0,0,1-10.22-15.2Zm-4.14,3.19a9.34,9.34,0,0,0-1.56,3.41,90.48,90.48,0,0,0,7.78,11.41,9.47,9.47,0,0,0,3.71-.2A87.56,87.56,0,0,1,627.92,233.24Z"/><path class="cls-17" d="M570.47,205.11a.52.52,0,0,1-.52-.52.53.53,0,0,1,.53-.53c6.11,0,9.4,2.88,12.52,5.58.77.67,1.53,1.33,2.34,1.94a17.13,17.13,0,0,0,7.06,3.16,16.4,16.4,0,0,0,7.59-.34,20.42,20.42,0,0,0,5.08-2.68c4.44-2.85,10-6.44,20.06-4.84,6.43,1,11.33.65,14.87-.67,4-1.48,6.25-4.15,7.08-7.31a.53.53,0,1,1,1,.26c-.91,3.49-3.39,6.42-7.73,8-3.71,1.37-8.78,1.78-15.4.72-9.64-1.54-15,1.93-19.33,4.69a21.62,21.62,0,0,1-5.36,2.8,17.42,17.42,0,0,1-8.08.36,18.18,18.18,0,0,1-7.49-3.35c-.81-.61-1.6-1.3-2.4-2C579.33,207.86,576.2,205.15,570.47,205.11Z"/><path class="cls-18" d="M618.84,206.46a2.06,2.06,0,1,1-1.67,2.58A2.18,2.18,0,0,1,618.84,206.46Z"/><path class="cls-19" d="M619.37,208.38c1.15-.32,4.36,1.62,5.25,4.85s-1.25,6.64-2,6.85-4.35-1.62-5.24-4.85S618.23,208.7,619.37,208.38Z"/><path class="cls-5" d="M619,210.78a.19.19,0,0,1,.13-.25.2.2,0,0,1,.25.14,9.15,9.15,0,0,1,.36,2.57,3.49,3.49,0,0,1,1.17-.38l.26,0a4.74,4.74,0,0,1-.77-1.22c-.47-1.23-.49-1.26-.49-1.26a.2.2,0,0,1,.14-.24.2.2,0,0,1,.25.14l.48,1.21a4.79,4.79,0,0,0,1,1.39,3.59,3.59,0,0,1,1.12.32,1.61,1.61,0,0,1,.49.33.52.52,0,0,1,.2.46.33.33,0,0,1-.11.23.3.3,0,0,1-.13.09h0a.92.92,0,0,1-.71-.18,5.29,5.29,0,0,1-.83-.65l-.21-.21a3.77,3.77,0,0,0-.58,0,3,3,0,0,0-1.23.45,6,6,0,0,1-.13,1,2.07,2.07,0,0,1-.23.62h0a.47.47,0,0,1-.45.27.5.5,0,0,1-.31-.19.77.77,0,0,1-.18-.44,1.11,1.11,0,0,1,.19-.72,2.44,2.44,0,0,1,.58-.64l.14-.11a9.19,9.19,0,0,0-.34-2.71Zm.21,3.82a3.86,3.86,0,0,0,.09-.56,1.81,1.81,0,0,0-.34.41.72.72,0,0,0-.13.47.39.39,0,0,0,.09.22l.05.05,0-.08h0a1.66,1.66,0,0,0,.18-.5Zm3.46-1.06a3,3,0,0,0-.4-.16,4.65,4.65,0,0,0,.51.39c.18.1.31.16.37.14s0-.06-.09-.11A1.25,1.25,0,0,0,622.67,213.54Z"/><path class="cls-18" d="M595.54,213.86a2.05,2.05,0,1,1-2.71,1.44A2.17,2.17,0,0,1,595.54,213.86Z"/><path class="cls-15" d="M595.08,215.79c1.15.28,3,3.52,2.24,6.78s-4.3,5.2-5.07,5-3-3.52-2.25-6.78S593.92,215.51,595.08,215.79Z"/><path class="cls-5" d="M593.58,217.71a.2.2,0,0,1,.24-.15.21.21,0,0,1,.16.24,9.52,9.52,0,0,1-.93,2.42,3.56,3.56,0,0,1,1.21.23l.24.11a4.85,4.85,0,0,1-.09-1.44c.18-1.3.18-1.33.18-1.33a.2.2,0,0,1,.24-.15.19.19,0,0,1,.15.24s0,0-.17,1.29a5.05,5.05,0,0,0,.16,1.68,3.8,3.8,0,0,1,.83.82,2.11,2.11,0,0,1,.28.53.6.6,0,0,1-.05.5.34.34,0,0,1-.21.14.41.41,0,0,1-.16,0h0c-.19,0-.37-.22-.54-.5a4.33,4.33,0,0,1-.4-1l-.09-.29a2.49,2.49,0,0,0-.51-.27,2.89,2.89,0,0,0-1.3-.2,6.24,6.24,0,0,1-.59.79,2.32,2.32,0,0,1-.49.44h0a.47.47,0,0,1-.52,0,.46.46,0,0,1-.18-.32.83.83,0,0,1,.05-.47,1.15,1.15,0,0,1,.51-.54,2.73,2.73,0,0,1,.82-.28l.18,0a8.69,8.69,0,0,0,1-2.54Zm-1.66,3.45a4.43,4.43,0,0,0,.36-.45,1.86,1.86,0,0,0-.49.19.74.74,0,0,0-.35.35.47.47,0,0,0,0,.24l0,.07.09-.05h0a1.93,1.93,0,0,0,.39-.35Zm3.55.74a2,2,0,0,0-.28-.33,5.37,5.37,0,0,0,.27.58c.1.18.19.29.25.31a.31.31,0,0,0,0-.15A1.28,1.28,0,0,0,595.47,221.9Z"/><path class="cls-18" d="M638.49,204.8a2.06,2.06,0,1,1-1.76,2.52A2.18,2.18,0,0,1,638.49,204.8Z"/><path class="cls-15" d="M639,206.73c1.16-.27,4.3,1.77,5.08,5s-1.48,6.59-2.26,6.77-4.29-1.76-5.07-5S637.79,207,639,206.73Z"/><path class="cls-5" d="M638.49,209.12a.19.19,0,0,1,.15-.24.19.19,0,0,1,.24.14,9,9,0,0,1,.27,2.58,3.53,3.53,0,0,1,1.19-.34h.26a4.66,4.66,0,0,1-.73-1.25c-.43-1.24-.45-1.27-.45-1.27a.21.21,0,0,1,.15-.24.2.2,0,0,1,.24.15s0,0,.44,1.23a5,5,0,0,0,.9,1.43,3.37,3.37,0,0,1,1.11.35,2,2,0,0,1,.49.35.54.54,0,0,1,.18.46.37.37,0,0,1-.12.23.57.57,0,0,1-.13.08h0a.88.88,0,0,1-.7-.2,5.07,5.07,0,0,1-.8-.67l-.21-.23a3.72,3.72,0,0,0-.58,0,3.13,3.13,0,0,0-1.25.41,5.72,5.72,0,0,1-.16,1,2,2,0,0,1-.25.61h0a.46.46,0,0,1-.46.25.44.44,0,0,1-.3-.2.86.86,0,0,1-.17-.44,1.13,1.13,0,0,1,.22-.72,2.64,2.64,0,0,1,.59-.62l.15-.1a8.73,8.73,0,0,0-.25-2.72Zm.08,3.83a3.09,3.09,0,0,0,.11-.56,2.09,2.09,0,0,0-.35.39.81.81,0,0,0-.15.47.55.55,0,0,0,.09.23.23.23,0,0,0,.05.05l0-.08h0a1.67,1.67,0,0,0,.19-.49Zm3.51-.95a3.17,3.17,0,0,0-.41-.17,3.79,3.79,0,0,0,.5.4.75.75,0,0,0,.36.16s0-.06-.08-.12A1.48,1.48,0,0,0,642.08,212Z"/><path class="cls-17" d="M593.44,153.82a16.42,16.42,0,0,0,7.4-.37,20.75,20.75,0,0,0,5.08-2.68c4.44-2.86,10-6.44,20.06-4.84l1,.15.82,1.17c-.65-.08-1.32-.17-2-.28-9.63-1.54-15,1.93-19.33,4.68a20.81,20.81,0,0,1-5.36,2.8,17.29,17.29,0,0,1-8.08.36l-.28-.05Z"/><path class="cls-18" d="M622.72,144.7a2.06,2.06,0,1,1-1.76,2.52A2.18,2.18,0,0,1,622.72,144.7Z"/><path class="cls-15" d="M623.18,146.63c1.16-.28,4.29,1.77,5.07,5s-1.47,6.59-2.25,6.77-4.29-1.76-5.07-5S622,146.91,623.18,146.63Z"/><path class="cls-5" d="M622.72,149a.21.21,0,0,1,.15-.25.21.21,0,0,1,.24.15,9,9,0,0,1,.27,2.58,3.32,3.32,0,0,1,1.19-.34h.26a4.66,4.66,0,0,1-.73-1.25l-.45-1.27a.2.2,0,0,1,.15-.24.19.19,0,0,1,.24.15s0,0,.44,1.23a4.67,4.67,0,0,0,.9,1.42,3.71,3.71,0,0,1,1.11.36,1.53,1.53,0,0,1,.48.35.54.54,0,0,1,.19.46.35.35,0,0,1-.12.22.38.38,0,0,1-.13.09h0a.91.91,0,0,1-.71-.2,5.06,5.06,0,0,1-.79-.68l-.21-.22a3.75,3.75,0,0,0-.58,0,3.13,3.13,0,0,0-1.25.41,5.89,5.89,0,0,1-.16,1,2,2,0,0,1-.25.61h0a.46.46,0,0,1-.46.25.47.47,0,0,1-.3-.2.86.86,0,0,1-.17-.44,1.16,1.16,0,0,1,.21-.72,2.69,2.69,0,0,1,.6-.62l.15-.1a8.71,8.71,0,0,0-.25-2.72Zm.08,3.82a3.82,3.82,0,0,0,.11-.55,1.82,1.82,0,0,0-.35.39.81.81,0,0,0-.15.47.39.39,0,0,0,.09.22.11.11,0,0,0,0,0s0,0,.06-.07h0a1.94,1.94,0,0,0,.19-.5Zm3.5-.94a3,3,0,0,0-.4-.17,4.84,4.84,0,0,0,.5.4.75.75,0,0,0,.36.16.26.26,0,0,0-.08-.12A1.38,1.38,0,0,0,626.3,151.9Z"/><path class="cls-18" d="M610.11,147.85a2.06,2.06,0,1,1-1.68,2.58A2.19,2.19,0,0,1,610.11,147.85Z"/><path class="cls-19" d="M610.63,149.77c1.15-.32,4.36,1.62,5.25,4.85s-1.25,6.64-2,6.85-4.35-1.62-5.24-4.85S609.49,150.09,610.63,149.77Z"/><path class="cls-5" d="M610.26,152.17a.21.21,0,0,1,.13-.25.2.2,0,0,1,.25.14,9.15,9.15,0,0,1,.36,2.57,3.57,3.57,0,0,1,1.17-.38l.26,0a5,5,0,0,1-.77-1.22c-.47-1.23-.49-1.26-.49-1.26a.2.2,0,0,1,.14-.24.2.2,0,0,1,.25.14s0,0,.48,1.21a4.79,4.79,0,0,0,1,1.39,3.44,3.44,0,0,1,1.12.32,1.81,1.81,0,0,1,.5.33.58.58,0,0,1,.2.46.45.45,0,0,1-.11.23.42.42,0,0,1-.14.09h0a.92.92,0,0,1-.71-.18,4.83,4.83,0,0,1-.82-.65l-.22-.21a3.77,3.77,0,0,0-.58,0,3.05,3.05,0,0,0-1.23.45,6,6,0,0,1-.13,1,2.07,2.07,0,0,1-.23.62h0a.47.47,0,0,1-.45.27.48.48,0,0,1-.31-.2.86.86,0,0,1-.18-.43,1.11,1.11,0,0,1,.19-.72,2.44,2.44,0,0,1,.58-.64l.14-.11a9.19,9.19,0,0,0-.34-2.71Zm.21,3.82a3.86,3.86,0,0,0,.09-.56,2.11,2.11,0,0,0-.34.41.72.72,0,0,0-.13.47.47.47,0,0,0,.09.22l.05.05s0,0,.06-.08h0a1.66,1.66,0,0,0,.18-.5Zm3.47-1.06-.41-.16a4.65,4.65,0,0,0,.51.39c.18.1.31.16.37.14s0-.06-.09-.11A1.32,1.32,0,0,0,613.94,154.93Z"/><path class="cls-18" d="M600.65,154a2.05,2.05,0,1,1-3,.5A2.18,2.18,0,0,1,600.65,154Z"/><path class="cls-13" d="M599.59,155.71c1,.63,1.75,4.3,0,7.14s-5.74,3.57-6.42,3.14-1.74-4.3,0-7.14S598.59,155.08,599.59,155.71Z"/><path class="cls-5" d="M597.57,157.06a.2.2,0,0,1,.28-.07.21.21,0,0,1,.07.27,9.27,9.27,0,0,1-1.66,2,3.22,3.22,0,0,1,1.07.6l.19.18a4.55,4.55,0,0,1,.39-1.39l.59-1.21a.2.2,0,0,1,.27-.07.2.2,0,0,1,.07.28s0,0-.57,1.17a4.94,4.94,0,0,0-.39,1.65,3.53,3.53,0,0,1,.53,1,1.91,1.91,0,0,1,.09.58.59.59,0,0,1-.2.46.41.41,0,0,1-.25.08l-.15,0h0a.9.9,0,0,1-.35-.65,4.62,4.62,0,0,1-.08-1c0-.1,0-.2,0-.3a3.16,3.16,0,0,0-.4-.42,2.8,2.8,0,0,0-1.16-.6,7.06,7.06,0,0,1-.81.56,2.82,2.82,0,0,1-.61.26h0a.43.43,0,0,1-.57-.51.81.81,0,0,1,.19-.43,1.2,1.2,0,0,1,.67-.35,2.48,2.48,0,0,1,.86,0l.17,0a8.74,8.74,0,0,0,1.77-2.08Zm-2.67,2.73a3.43,3.43,0,0,0,.47-.31,2.14,2.14,0,0,0-.52,0,.71.71,0,0,0-.44.22.41.41,0,0,0-.1.22.26.26,0,0,0,0,.07l.1,0h0a2,2,0,0,0,.49-.21Zm3.12,1.84a2.66,2.66,0,0,0-.16-.41,3.68,3.68,0,0,0,.07.64.7.7,0,0,0,.14.37.61.61,0,0,0,0-.14A1.48,1.48,0,0,0,598,161.63Z"/><path class="cls-17" d="M529.45,336.93a.7.7,0,1,1,1.15-.8c5.25,7.55,10.57,12.47,16.28,14.49s11.76,1.17,18.6-2.77c9.86-5.67,20.19-3,33.73.47,6.19,1.59,13.06,3.35,20.86,4.57,24.26,3.76,31.41-5,38.93-14.17l.06-.08h0c7.9-9.65,17.6-9.21,17.62-9.21a.71.71,0,0,1,0,1.41s-9-.41-16.48,8.69h0l-.06.08c-7.78,9.51-15.18,18.55-40.23,14.66a212.4,212.4,0,0,1-21-4.59c-13.23-3.41-23.32-6-32.68-.61-7.22,4.16-13.7,5-19.76,2.88S534.86,344.72,529.45,336.93Z"/><path class="cls-18" d="M546.09,349.89a2.05,2.05,0,1,1-3,.51A2.18,2.18,0,0,1,546.09,349.89Z"/><path class="cls-15" d="M545,351.58c1,.63,1.75,4.3,0,7.14s-5.74,3.56-6.41,3.14-1.75-4.3,0-7.14S544,350.94,545,351.58Z"/><path class="cls-5" d="M543,352.92a.2.2,0,1,1,.35.21,9.22,9.22,0,0,1-1.65,2,3.45,3.45,0,0,1,1.07.61l.19.18a4.62,4.62,0,0,1,.38-1.4l.59-1.2a.2.2,0,0,1,.28-.07.21.21,0,0,1,.06.28s0,0-.57,1.17a4.65,4.65,0,0,0-.38,1.64,3.74,3.74,0,0,1,.52,1,1.69,1.69,0,0,1,.09.59.56.56,0,0,1-.2.46.4.4,0,0,1-.24.07.29.29,0,0,1-.16,0h0a.92.92,0,0,1-.35-.65,4.67,4.67,0,0,1-.08-1c0-.1,0-.2,0-.31a3.13,3.13,0,0,0-.4-.42,3.06,3.06,0,0,0-1.16-.6,6.14,6.14,0,0,1-.81.57,2.18,2.18,0,0,1-.61.25h0a.45.45,0,0,1-.5-.14.5.5,0,0,1-.07-.37.82.82,0,0,1,.2-.42,1.09,1.09,0,0,1,.66-.35,2.73,2.73,0,0,1,.86,0l.18,0a8.74,8.74,0,0,0,1.76-2.08Zm-2.67,2.74a4.78,4.78,0,0,0,.48-.31,1.84,1.84,0,0,0-.53,0,.77.77,0,0,0-.44.22.44.44,0,0,0-.1.22s0,.07,0,.07h.1a1.88,1.88,0,0,0,.49-.21Zm3.13,1.84a4.3,4.3,0,0,0-.16-.41,3.87,3.87,0,0,0,.06.64.74.74,0,0,0,.14.37.22.22,0,0,0,0-.14A1.72,1.72,0,0,0,543.47,357.5Z"/><path class="cls-18" d="M560.45,350.11a2.06,2.06,0,1,1-1.68,2.58A2.19,2.19,0,0,1,560.45,350.11Z"/><path class="cls-19" d="M561,352c1.14-.32,4.35,1.62,5.24,4.85s-1.25,6.63-2,6.85-4.35-1.62-5.24-4.85S559.83,352.34,561,352Z"/><path class="cls-5" d="M560.6,354.43a.21.21,0,0,1,.13-.25.2.2,0,0,1,.25.14,8.8,8.8,0,0,1,.36,2.57,3.15,3.15,0,0,1,1.17-.38l.27,0a4.67,4.67,0,0,1-.78-1.23c-.47-1.22-.49-1.25-.49-1.25a.21.21,0,0,1,.15-.24.2.2,0,0,1,.24.13s0,0,.48,1.22a4.79,4.79,0,0,0,1,1.39,3.44,3.44,0,0,1,1.12.32,1.81,1.81,0,0,1,.5.33.57.57,0,0,1,.2.46.45.45,0,0,1-.11.23.35.35,0,0,1-.13.08h0a.92.92,0,0,1-.71-.18,4.83,4.83,0,0,1-.82-.65l-.22-.21a2.26,2.26,0,0,0-.58,0,3.05,3.05,0,0,0-1.23.45,6.15,6.15,0,0,1-.13,1,2.57,2.57,0,0,1-.22.62h0a.47.47,0,0,1-.45.27.52.52,0,0,1-.31-.2.86.86,0,0,1-.18-.43,1.17,1.17,0,0,1,.19-.72,2.17,2.17,0,0,1,.58-.64l.14-.11a8.83,8.83,0,0,0-.34-2.71Zm.21,3.82a4.1,4.1,0,0,0,.09-.56,2.41,2.41,0,0,0-.34.4.76.76,0,0,0-.13.48.43.43,0,0,0,.1.22l0,0s0,0,.06-.08h0a1.66,1.66,0,0,0,.18-.5Zm3.47-1.06a3.19,3.19,0,0,0-.41-.16,3.51,3.51,0,0,0,.51.38c.18.11.31.17.37.15s0-.06-.08-.12A1.65,1.65,0,0,0,564.28,357.19Z"/><path class="cls-18" d="M583.59,345.62a2.06,2.06,0,1,1-2.67,1.54A2.18,2.18,0,0,1,583.59,345.62Z"/><path class="cls-13" d="M583.19,347.57c1.17.24,3.15,3.41,2.48,6.7s-4.12,5.35-4.91,5.19-3.14-3.41-2.47-6.7S582,347.33,583.19,347.57Z"/><path class="cls-5" d="M581.76,349.54a.21.21,0,0,1,.24-.16.2.2,0,0,1,.16.23,9.25,9.25,0,0,1-.84,2.46,3.3,3.3,0,0,1,1.21.19l.24.1a4.94,4.94,0,0,1-.13-1.44c.13-1.31.13-1.34.13-1.34a.19.19,0,0,1,.24-.15.18.18,0,0,1,.15.23s0,0-.12,1.3a4.66,4.66,0,0,0,.22,1.67,3.85,3.85,0,0,1,.85.79,2.42,2.42,0,0,1,.3.52.6.6,0,0,1,0,.5.36.36,0,0,1-.21.15.26.26,0,0,1-.15,0h0a.9.9,0,0,1-.55-.48,4.7,4.7,0,0,1-.44-.95c0-.09-.07-.19-.1-.29a2.78,2.78,0,0,0-.52-.25,3,3,0,0,0-1.3-.16,6.09,6.09,0,0,1-.56.82,2.4,2.4,0,0,1-.48.45h0a.46.46,0,0,1-.52,0,.46.46,0,0,1-.19-.31.93.93,0,0,1,0-.47,1.21,1.21,0,0,1,.5-.56,2.62,2.62,0,0,1,.8-.31l.18,0a8.56,8.56,0,0,0,.92-2.57Zm-1.54,3.5a5,5,0,0,0,.34-.46,2.78,2.78,0,0,0-.49.21.75.75,0,0,0-.33.36.39.39,0,0,0,0,.24l0,.07.09,0h0a1.83,1.83,0,0,0,.38-.37Zm3.57.63a2.86,2.86,0,0,0-.29-.33,3.91,3.91,0,0,0,.29.58c.1.17.2.28.26.29a.22.22,0,0,0,0-.14A1,1,0,0,0,583.79,353.67Z"/><path class="cls-18" d="M598.17,349.26a2.05,2.05,0,1,1-1.67,2.58A2.18,2.18,0,0,1,598.17,349.26Z"/><path class="cls-19" d="M598.7,351.18c1.15-.32,4.35,1.61,5.24,4.84s-1.24,6.64-2,6.85-4.36-1.61-5.25-4.84S597.55,351.49,598.7,351.18Z"/><path class="cls-5" d="M598.32,353.58a.2.2,0,0,1,.14-.25.21.21,0,0,1,.25.13,9.21,9.21,0,0,1,.36,2.58,3.1,3.1,0,0,1,1.17-.38l.26,0a4.78,4.78,0,0,1-.77-1.23l-.49-1.25a.2.2,0,0,1,.14-.25.21.21,0,0,1,.25.14l.47,1.22a5,5,0,0,0,1,1.39,3.73,3.73,0,0,1,1.11.31,2.07,2.07,0,0,1,.5.34.54.54,0,0,1,.2.46.33.33,0,0,1-.11.22.38.38,0,0,1-.13.09h0a.93.93,0,0,1-.71-.19,4.28,4.28,0,0,1-.82-.64l-.21-.22a2.82,2.82,0,0,0-.58,0,3,3,0,0,0-1.24.45,5.3,5.3,0,0,1-.13,1,2.2,2.2,0,0,1-.22.62h0a.47.47,0,0,1-.44.27.49.49,0,0,1-.31-.2.83.83,0,0,1-.19-.43,1.25,1.25,0,0,1,.19-.73,2.62,2.62,0,0,1,.58-.63l.14-.11a8.54,8.54,0,0,0-.34-2.71Zm.21,3.82c0-.17.07-.36.1-.56a1.77,1.77,0,0,0-.34.4.84.84,0,0,0-.14.47.43.43,0,0,0,.1.23s0,.05,0,.05l.05-.08h0a2,2,0,0,0,.17-.5Zm3.47-1.06a2.19,2.19,0,0,0-.41-.16,3.55,3.55,0,0,0,.52.38.7.7,0,0,0,.36.15.26.26,0,0,0-.08-.12A1.38,1.38,0,0,0,602,356.34Z"/><path class="cls-18" d="M619.83,353.3a2.05,2.05,0,1,1-3,.51A2.18,2.18,0,0,1,619.83,353.3Z"/><path class="cls-15" d="M618.78,355c1,.63,1.75,4.3,0,7.14s-5.74,3.56-6.41,3.14-1.75-4.3,0-7.14S617.77,354.36,618.78,355Z"/><path class="cls-5" d="M616.75,356.33a.22.22,0,0,1,.28-.07.2.2,0,0,1,.07.28,9.22,9.22,0,0,1-1.65,2,3.34,3.34,0,0,1,1.07.61l.19.18a4.92,4.92,0,0,1,.38-1.4l.59-1.21a.21.21,0,0,1,.28-.06.21.21,0,0,1,.06.28s0,0-.57,1.17a4.88,4.88,0,0,0-.38,1.64,3.74,3.74,0,0,1,.52,1,1.69,1.69,0,0,1,.09.59.56.56,0,0,1-.2.46.4.4,0,0,1-.24.07.29.29,0,0,1-.16,0h0a1,1,0,0,1-.35-.65,5.36,5.36,0,0,1-.08-1c0-.1,0-.2,0-.3a3.28,3.28,0,0,0-.4-.43,3,3,0,0,0-1.17-.6,6.14,6.14,0,0,1-.81.57,2.07,2.07,0,0,1-.61.25h0a.45.45,0,0,1-.5-.14.54.54,0,0,1-.07-.36.9.9,0,0,1,.2-.43,1.12,1.12,0,0,1,.66-.35,2.73,2.73,0,0,1,.86,0l.18,0a8.8,8.8,0,0,0,1.76-2.09Zm-2.67,2.74a4.78,4.78,0,0,0,.48-.31,1.84,1.84,0,0,0-.53,0,.8.8,0,0,0-.44.22.44.44,0,0,0-.1.23v.06h.1a1.88,1.88,0,0,0,.49-.21Zm3.13,1.84a2.66,2.66,0,0,0-.16-.41,5.38,5.38,0,0,0,.06.64.86.86,0,0,0,.14.37.22.22,0,0,0,0-.14A1.39,1.39,0,0,0,617.21,360.91Z"/><path class="cls-18" d="M635.82,353.65a2.06,2.06,0,1,1-.89,2.94A2.19,2.19,0,0,1,635.82,353.65Z"/><path class="cls-13" d="M636.86,355.35c1-.63,4.63.34,6.39,3.2s.64,6.72,0,7.14-4.63-.35-6.38-3.2S635.85,356,636.86,355.35Z"/><path class="cls-5" d="M637.17,357.76a.2.2,0,1,1,.34-.22,9.3,9.3,0,0,1,1.06,2.37,3.23,3.23,0,0,1,1-.69l.24-.09a4.89,4.89,0,0,1-1.08-1l-.82-1.07a.2.2,0,0,1,.07-.27.19.19,0,0,1,.27.06,11.42,11.42,0,0,1,.8,1,4.92,4.92,0,0,0,1.3,1.08,3.54,3.54,0,0,1,1.17,0,1.84,1.84,0,0,1,.56.18.53.53,0,0,1,.32.39.38.38,0,0,1,0,.25.53.53,0,0,1-.1.12h0a1,1,0,0,1-.74,0,5.45,5.45,0,0,1-1-.39l-.26-.15a3.62,3.62,0,0,0-.56.17,2.89,2.89,0,0,0-1,.78,5.62,5.62,0,0,1,.14,1,2.13,2.13,0,0,1,0,.65h0a.47.47,0,0,1-.36.39.49.49,0,0,1-.35-.1.83.83,0,0,1-.3-.37,1.13,1.13,0,0,1,0-.75,2.36,2.36,0,0,1,.37-.77l.11-.14a9,9,0,0,0-1.08-2.51Zm1.26,3.61q0-.25-.06-.57a2.32,2.32,0,0,0-.22.49.82.82,0,0,0,0,.49.58.58,0,0,0,.16.19l.06,0a.78.78,0,0,1,0-.09h0a1.69,1.69,0,0,0,0-.53Zm3-2a2,2,0,0,0-.44,0,4.56,4.56,0,0,0,.6.22.77.77,0,0,0,.4,0,.35.35,0,0,0-.12-.09A1.44,1.44,0,0,0,641.47,359.39Z"/><path class="cls-18" d="M652.39,347.39a2.06,2.06,0,1,0,3.07-.08A2.19,2.19,0,0,0,652.39,347.39Z"/><path class="cls-15" d="M653.75,348.84c-.87.82-.89,4.56,1.41,7s6.32,2.39,6.9,1.85.88-4.56-1.41-7S654.62,348,653.75,348.84Z"/><path class="cls-5" d="M656,349.77a.21.21,0,0,0-.29,0,.19.19,0,0,0,0,.28,9.22,9.22,0,0,0,2,1.65,3.3,3.3,0,0,0-.94.8l-.15.21a4.85,4.85,0,0,0-.64-1.29l-.82-1.07a.19.19,0,0,0-.28,0,.19.19,0,0,0,0,.28s0,0,.79,1a5,5,0,0,1,.69,1.54,3.44,3.44,0,0,0-.31,1.12,1.61,1.61,0,0,0,0,.59.59.59,0,0,0,.29.42.42.42,0,0,0,.25,0,.51.51,0,0,0,.15-.07h0a.93.93,0,0,0,.21-.7,4.61,4.61,0,0,0-.12-1c0-.1-.05-.19-.07-.29a3.12,3.12,0,0,1,.31-.49,3,3,0,0,1,1-.82,5.57,5.57,0,0,0,.9.4,2.06,2.06,0,0,0,.65.13h0a.45.45,0,0,0,.46-.24.47.47,0,0,0,0-.37.9.9,0,0,0-.28-.38,1.2,1.2,0,0,0-.72-.21,2.39,2.39,0,0,0-.84.16l-.17.06a8.6,8.6,0,0,1-2.13-1.7Zm3.15,2.17c-.16-.05-.34-.13-.53-.21a1.65,1.65,0,0,1,.52-.08.78.78,0,0,1,.48.13.43.43,0,0,1,.14.2s0,.06,0,.06h-.1a1.79,1.79,0,0,1-.52-.11Zm-2.71,2.41a3.49,3.49,0,0,1,.07-.43,3.91,3.91,0,0,1,.06.64.79.79,0,0,1-.06.39.38.38,0,0,1-.06-.14A1.37,1.37,0,0,1,656.44,354.35Z"/><path class="cls-18" d="M663.82,333.28a2.05,2.05,0,1,1-1.68,2.57A2.18,2.18,0,0,1,663.82,333.28Z"/><path class="cls-19" d="M664.34,335.19c1.15-.31,4.36,1.62,5.25,4.85s-1.25,6.64-2,6.85-4.35-1.62-5.24-4.85S663.2,335.51,664.34,335.19Z"/><path class="cls-5" d="M664,337.59a.2.2,0,0,1,.13-.25.2.2,0,0,1,.25.14,9.15,9.15,0,0,1,.36,2.57,3.49,3.49,0,0,1,1.17-.38l.26,0a4.74,4.74,0,0,1-.77-1.22c-.47-1.23-.49-1.26-.49-1.26a.2.2,0,0,1,.14-.24.2.2,0,0,1,.25.14l.48,1.21a5,5,0,0,0,1,1.4,3.45,3.45,0,0,1,1.12.31,2.06,2.06,0,0,1,.5.33.59.59,0,0,1,.2.46.54.54,0,0,1-.11.23.42.42,0,0,1-.14.09h0a1,1,0,0,1-.72-.18,5.23,5.23,0,0,1-.81-.65,2.18,2.18,0,0,1-.22-.21,3.77,3.77,0,0,0-.58,0,3,3,0,0,0-1.23.45,6,6,0,0,1-.13,1,2.07,2.07,0,0,1-.23.62h0a.46.46,0,0,1-.45.27.48.48,0,0,1-.31-.19.77.77,0,0,1-.18-.44,1.11,1.11,0,0,1,.19-.72,2.44,2.44,0,0,1,.58-.64l.14-.11a9.19,9.19,0,0,0-.34-2.71Zm.21,3.82a3.86,3.86,0,0,0,.09-.56,1.81,1.81,0,0,0-.34.41.73.73,0,0,0-.13.47.47.47,0,0,0,.09.22s0,.05.05.05l0-.08h0a1.66,1.66,0,0,0,.18-.5Zm3.47-1.06-.41-.16a4.65,4.65,0,0,0,.51.39c.18.1.31.16.37.14s0-.06-.09-.11A1.32,1.32,0,0,0,667.65,340.35Z"/><path class="cls-16" d="M672.5,395c-14.92-3-12.78-14.06-22.59-2.55s-8.52,6.39-24.29,5.54c-10.2-.55-7.12,3.88-14.24,6.28-3.91,1.31-16.66,2-22.85,1-17.48-3-18.68-3.75-27.29-2.08s-19.44-4.69-24.17-2.51c6.93,1.88,10.15,6.53,18.61,7,51.5,3,129,.14,143.93-16.87,3.51-4-9.74-16.17-15.43-21.09a21.83,21.83,0,0,1-6-.33L677,369C683.29,384,686.38,397.81,672.5,395Z"/><path class="cls-16" d="M532,399.11c8.48,1.58,9.27,2.76,11.83,7.89s6.31,8.08,20.31,5.13,20.9-4.54,38.05,7.09,18.54-.78,31.94-6.3,21.1-4.34,39.24-3.55,19.12-5.72,18.34-9.47,3.74-3.35,10.44.59,9.07-.59,4.15-8.28-13.61-13.8-14.59-12.22-3,11.24-10.06,15.58-21.1,4.92-41.8,7.09c-18.1,1.9-32.34,10.21-84.76,3.6C547.58,405.31,541.38,400.58,532,399.11Z"/><path class="cls-8" d="M581.88,428.49c-14.8,3.9-28.88,13-28.88,17,0,9.11,50.36-3.76,52.14-11.31C606.12,430,596.69,424.59,581.88,428.49Z"/><path class="cls-5" d="M581.88,428.49A78.93,78.93,0,0,0,565,435.18c-2.59,2.06-4.12,3.94-4.12,5.25,0,5.67,22.43,3.62,37.58-1.15,1.55-.49,6.43-4.08,6.67-5.09C606.12,430,596.69,424.59,581.88,428.49Z"/><path class="cls-5" d="M622.42,427a79.41,79.41,0,0,0-17.84,3.9c-2.9,1.62-4.73,3.23-4.94,4.54-1.13,6.87,28.65,5.88,44.34,1.85a2.87,2.87,0,0,0,.59-.84C646.23,432.4,637.75,425.49,622.42,427Z"/></g></svg>