<svg xmlns="http://www.w3.org/2000/svg" viewBox="0 0 500 467.33"><defs><style>.cls-1{isolation:isolate;}.cls-2{fill:#293549;}.cls-3{fill:#2f4459;}.cls-4{fill:#839cb2;opacity:0.3;}.cls-5{fill:#345184;}.cls-6{fill:#fff;}.cls-7{fill:#34d6b7;}.cls-8{fill:#bcf1f7;}.cls-9{fill:#ffc550;}.cls-10{fill:#4d74ad;}.cls-11{fill:#efa21b;}.cls-12{fill:#ed7c69;}.cls-13{mix-blend-mode:multiply;}.cls-14{fill:#afafaf;}.cls-15{fill:#ffaf84;}.cls-16{fill:#c0d0d8;}.cls-17{fill:#eff4f4;}.cls-18{fill:#808791;}.cls-19{fill:#3962a8;}.cls-20{fill:#497ac1;}.cls-21{fill:#7face2;}.cls-22{fill:#ffe1ab;}.cls-23{fill:#ffeed4;}.cls-24{fill:#d3d3d3;}.cls-25{fill:#cc6052;}.cls-26{fill:#25bfa1;}.cls-27{fill:#ffca55;}.cls-28{fill:#549ffc;}.cls-29{fill:#4068a3;}.cls-30{fill:#b9ddfc;}.cls-31{fill:#fafeff;}.cls-32{fill:#97c9ff;}</style></defs><g class="cls-1"><g id="Background"><rect class="cls-2" width="500" height="500"/><path class="cls-3" d="M20.67,189.85C18.24,201.44,8.85,246.08,33,291.16c5.12,9.59,29.22,54.67,72.09,63.12,56.71,11.17,85.68-53.72,145-51.86,51,1.6,53.47,72.61,109.57,81.33,29.29,4.56,64.42-7.19,81.61-28.58,53.67-66.76-11.09-297.43-165.38-327.79C163.53,5.29,40.3,96.52,20.67,189.85Z"/><path class="cls-4" d="M317,293.59a124.85,124.85,0,0,1-31.25-3.87c-48.28-12.5-88-56.52-106.36-117.77C165.23,124.8,168,79.6,186.23,59.48c12.38-13.66,36.92-20.67,57.1-16.3,19.07,4.13,28.23,18.26,37.08,31.92,8.73,13.48,17,26.21,34,27.75,19.13,1.74,34.26-7.2,48.91-15.84,16.34-9.65,31.77-18.75,51.8-13.56,18.72,4.85,35.34,21.21,46.79,46.07,6.68,14.49,12.85,38.35,4.3,69.68h0c-8.35,30.6-33.89,61-68.32,81.2C372,285.64,343.75,293.59,317,293.59ZM230.78,42.88c-16.72,0-34.09,6.55-43.8,17.27-18,19.87-20.69,64.68-6.69,111.51C198.51,232.57,238,276.34,286,288.75c34.77,9,75.41,2,111.48-19.21,34.22-20.12,59.59-50.25,67.86-80.6l.49.13-.49-.13c8.47-31.05,2.37-54.66-4.24-69-11.32-24.58-27.71-40.74-46.13-45.52-19.63-5.09-34.89,3.91-51.05,13.45-14.77,8.72-30.07,17.74-49.5,16-17.56-1.59-25.93-14.52-34.8-28.2-8.74-13.5-17.78-27.45-36.46-31.49A58.56,58.56,0,0,0,230.78,42.88Z"/><path class="cls-4" d="M129.86,398.65c-14.68,0-31-5.36-47.53-15.77-13.49-8.52-31.66-25.16-41.56-56.1C31.1,296.58,36,257.21,53.83,221.47c18.81-37.67,49.28-65.86,83.59-77.34,47.3-15.82,104.63-.56,153.36,40.82,37.51,31.86,59.81,71.27,55.48,98.07-2.94,18.2-19.7,37.44-39,44.77-18.24,6.92-33.62.07-48.48-6.57-14.67-6.54-28.52-12.72-43.68-4.72-17,9-24.81,24.71-32.38,39.93-8.44,17-16.42,33-36.06,39.59A52.78,52.78,0,0,1,129.86,398.65ZM176,139a120.2,120.2,0,0,0-38.27,6.08c-34.06,11.39-64.32,39.4-83,76.84-17.73,35.51-22.59,74.6-13,104.56h0c9.81,30.65,27.79,47.13,41.15,55.55,22.88,14.44,45.43,19.08,63.47,13,19.25-6.42,27.14-22.29,35.49-39.09,7.64-15.36,15.54-31.25,32.81-40.36,15.59-8.23,29.65-2,44.54,4.69,14.68,6.55,29.86,13.33,47.73,6.54,19-7.21,35.48-26.12,38.36-44,4.28-26.47-17.88-65.51-55.14-97.15C254.25,155.24,213.7,139,176,139Z"/></g><g id="Objects"><path class="cls-5" d="M166.1,170A98.74,98.74,0,0,1,236.8,37l10.52,48a49.62,49.62,0,0,0-39,48.45,49.07,49.07,0,0,0,3.52,18.36Z"/><path class="cls-6" d="M188,203.31c-.78-.77-1.51-1.58-2.25-2.38l35.92-33.6A49.57,49.57,0,1,0,279.81,89l21.78-44.13A98.79,98.79,0,1,1,188,203.31Z"/><path class="cls-7" d="M257.9,83.87A49.5,49.5,0,0,0,247.32,85L236.8,37a98.31,98.31,0,0,1,64.79,7.9L279.81,89A48.93,48.93,0,0,0,257.9,83.87Z"/><path class="cls-8" d="M185.77,200.93A97.36,97.36,0,0,1,166.1,170l45.74-18.22a49,49,0,0,0,9.85,15.51Z"/><path class="cls-7" d="M63.74,288.11a4.71,4.71,0,1,1-4.71-4.7A4.71,4.71,0,0,1,63.74,288.11Z"/><path class="cls-9" d="M34.35,286.83a11.91,11.91,0,1,1,11.9-11.91A11.92,11.92,0,0,1,34.35,286.83Zm0-17.6A5.7,5.7,0,1,0,40,274.92,5.71,5.71,0,0,0,34.35,269.23Z"/><path class="cls-7" d="M377.26,85h-4v4a3.28,3.28,0,1,1-6.55,0V85h-4a3.28,3.28,0,1,1,0-6.55h4v-4a3.28,3.28,0,0,1,6.55,0v4h4a3.28,3.28,0,1,1,0,6.55Z"/><path class="cls-5" d="M409.46,64.25a4.71,4.71,0,1,1-4.7-4.71A4.69,4.69,0,0,1,409.46,64.25Z"/><path class="cls-10" d="M216.65,161.05a41.42,41.42,0,0,1,40.88-35.11,40.4,40.4,0,0,1,6.06.61,41.24,41.24,0,0,1,74.89-9.26,41.43,41.43,0,0,1,64.23,26.65,41.42,41.42,0,0,1-3.08,82.74H219a32.85,32.85,0,0,1-2.34-65.63Z"/><path class="cls-6" d="M445.07,159.15A19,19,0,0,0,426.32,143a18.06,18.06,0,0,0-2.78.28,18.93,18.93,0,0,0-34.36-4.25,19,19,0,0,0-29.47,12.23,19,19,0,0,0,1.41,38H444a15.07,15.07,0,0,0,1.07-30.11Z"/><path class="cls-11" d="M58.14,362.5c-4-1.25-5.6,1.65-5.22,3.88.55,3.16,2.26,3.52-2,6.24-3.11,2-3.84,6.19-.34,8.28,4.91,2.92-.32,5.18-1.46,7.69-2.36,5.17,1.5,6.44,7.74,9,6.41,2.64,11.21,1.35,15.68-2.72,3.31-3,5.28-6.41,3.29-9.49C73,381,68.36,384,70.18,379.68c1.08-2.57,1.18-7.36-4.66-7.78S63.91,364.3,58.14,362.5Z"/><path class="cls-9" d="M81.93,354.26c5-1.06,6.64,2.68,5.91,5.35-1,3.8-3.18,4,1.64,7.87,3.56,2.82,4,8-.58,10.14-6.33,3-.22,6.38.88,9.57,2.26,6.6-2.6,7.69-10.54,10.08-8.14,2.47-13.85.33-18.83-5.19-3.67-4.07-5.67-8.45-2.88-12,4-5.05,9.35-.84,7.65-6.3-1-3.27-.58-9.14,6.61-9S74.67,355.77,81.93,354.26Z"/><path class="cls-11" d="M73.15,389.34c5.23,7.62,6.91,12.82.31,13.47s-15.11-16.32-10.21-19.58C66.7,380.93,70.66,385.71,73.15,389.34Z"/><path class="cls-12" d="M76.29,421h-15a3.81,3.81,0,0,1-3.77-3.2L54.27,397.7a.76.76,0,0,1,.75-.88H82.59a.76.76,0,0,1,.75.88l-3.29,20.14A3.8,3.8,0,0,1,76.29,421Z"/><path class="cls-11" d="M81.51,375.75c-4.66,1.41-8.54,3.36-5.52,4.73s13.49-3,12-4.85C87,374.31,83.74,375.07,81.51,375.75Z"/><path class="cls-11" d="M81.81,360.86c-1.06,2.94-2.16,4.43-3.64,2.74s1.51-7.37,3.38-6.67C82.86,357.43,82.32,359.46,81.81,360.86Z"/><path class="cls-9" d="M57.25,366.65c1.15,2.91,1.31,4.75-.91,4.47s-3.75-6.53-1.89-7.24C55.76,363.38,56.71,365.26,57.25,366.65Z"/><path class="cls-9" d="M51.84,380.49c-2-1.8-2.88-3.16-1.05-3.82s5.47,3.59,4.3,4.87C54.27,382.44,52.8,381.35,51.84,380.49Z"/><path class="cls-11" d="M74.46,374.89c1.84-.62,3-.67,2.74.7s-4.16,2.12-4.54,1C72.39,375.71,73.58,375.18,74.46,374.89Z"/><g class="cls-13"><path class="cls-14" d="M56.82,423.21h24a1.08,1.08,0,0,0,1.09-1.08h0A1.09,1.09,0,0,0,80.79,421h-24a1.08,1.08,0,0,0-1.08,1.09h0A1.08,1.08,0,0,0,56.82,423.21Z"/></g><path class="cls-7" d="M440.62,261.74c-2.34-3-5.45,2.81-5.32,5.21.14,2.58,2.16,6.79,3.77,5.46C441.17,270.67,443.78,265.77,440.62,261.74Z"/><path class="cls-15" d="M441.66,292.31a3.24,3.24,0,0,1-2.56-5.22s.32-.41,2.51-3.1c.81-1,1.3-4.32,1.24-6.79a3.24,3.24,0,1,1,6.48-.17c0,1.25.07,7.67-2.7,11.06-2,2.43-2.37,2.92-2.41,3A3.23,3.23,0,0,1,441.66,292.31Z"/><path class="cls-12" d="M444.4,343.31s3.42-4.77,2.82-14.79l-22.91-2.81s-1.24,7.42-1.63,14.94Z"/><path class="cls-12" d="M433.48,414.33h-.11a4.62,4.62,0,0,1-4.51-4.73c0-1.07.63-26.3,2-35.3,2-13,5.06-34.76,5.09-35a4.61,4.61,0,1,1,9.14,1.28c0,.22-3.1,22.06-5.1,35.09-1.29,8.42-1.9,33.86-1.91,34.12A4.62,4.62,0,0,1,433.48,414.33Z"/><g class="cls-13"><path class="cls-14" d="M407.67,418.31h30a2,2,0,0,0,2-2h0a2,2,0,0,0-2-2h-30a2,2,0,0,0-2,2h0A2,2,0,0,0,407.67,418.31Z"/></g><path class="cls-12" d="M401.2,404.85a4.5,4.5,0,0,1-1.2-.16,4.61,4.61,0,0,1-3.26-5.65c.21-.8,5.3-19.69,9.28-28.19,3.79-8.1,17.56-33.58,18.14-34.66a4.61,4.61,0,1,1,8.12,4.38c-.14.27-14.22,26.33-17.9,34.19s-8.67,26.48-8.73,26.67A4.61,4.61,0,0,1,401.2,404.85Z"/><path class="cls-9" d="M463.53,311.36a3.62,3.62,0,0,1-1.42-.34c-1.07-.44-3.6-1.46-10.57-22.18a2.74,2.74,0,1,1,5.2-1.75c2.25,6.68,5.23,14.4,7,17.69a81.19,81.19,0,0,0,6.77-12.43,2.75,2.75,0,0,1,5,2.27C469,309,465.56,311.36,463.53,311.36Zm1.14-5.13Z"/><path class="cls-9" d="M421,296.23c-8,0-14.08-18.84-16.34-26.93a2.75,2.75,0,0,1,5.29-1.48c3.6,12.91,8.9,22.92,11.05,22.92,1.45-.08,7.08-3.51,12-7.33a2.74,2.74,0,1,1,3.36,4.34C433.09,290.3,425,296.23,421,296.23Z"/><path class="cls-9" d="M456.31,287.71c-2.71,8.94-8.63,31.5-9.09,40.81l-22.91-2.81s5.54-33.83,8.73-41.84a2.27,2.27,0,0,1,2.39-1.41l19,2.32A2.28,2.28,0,0,1,456.31,287.71Z"/><path class="cls-15" d="M435.37,268.71a10.31,10.31,0,1,0,11.49-9A10.32,10.32,0,0,0,435.37,268.71Z"/><path class="cls-15" d="M407.31,271.3a2.74,2.74,0,0,1-.57-5.42c1.66-.36,4.61-1.22,4.64-1.23a2.75,2.75,0,0,1,1.54,5.27c-.13,0-3.17.92-5,1.32A2.29,2.29,0,0,1,407.31,271.3Z"/><path class="cls-7" d="M455.28,263c-2.8-2.57-4.93,3.65-4.42,6,.55,2.52,3.22,6.36,4.6,4.78C457.25,271.68,459,266.42,455.28,263Z"/><path class="cls-7" d="M453.27,263.77c-2.54,1.81-14.22,1.05-16.85-1.84s.47-5.42,2.5-5.41c3.6,0,4.53,2.63,9.11,2.72S456.71,261.32,453.27,263.77Z"/><path class="cls-7" d="M453.15,263c-2.13.9-10.43-1.48-11.87-4s1.19-3.83,2.66-3.51c2.59.58,2.85,2.61,6.14,3.4S456,261.74,453.15,263Z"/><path class="cls-15" d="M456.42,273a3.72,3.72,0,0,1-1.84,2.53,1.47,1.47,0,0,1-2.13-1.6l.64-3.29a1.48,1.48,0,0,1,2.58-.68A3.74,3.74,0,0,1,456.42,273Z"/><circle class="cls-16" cx="471.18" cy="313.03" r="17.41" transform="translate(58.95 700.41) rotate(-76.82)"/><path class="cls-17" d="M487.19,313a16,16,0,0,1-10.4,15,17.77,17.77,0,0,1-1.92.59c-.4.09-.8.17-1.2.23a15.69,15.69,0,0,1-2.49.19,16.2,16.2,0,0,1-4.75-.71,16,16,0,0,1-4.11-28.63,16.1,16.1,0,0,1,8.86-2.69,16,16,0,0,1,14.92,10.22A15.74,15.74,0,0,1,487.19,313Z"/><path class="cls-18" d="M471.18,313.84a.82.82,0,0,1-.62-.3l-5.3-6.53a.81.81,0,0,1,1.25-1l5.3,6.53a.81.81,0,0,1-.63,1.32Z"/><path class="cls-16" d="M474.32,313a3.14,3.14,0,1,1-3.14-3.14A3.14,3.14,0,0,1,474.32,313Z"/><path class="cls-16" d="M463.09,323.17a.82.82,0,0,1-.61-1.34l8.09-9.33a.81.81,0,1,1,1.22,1.06l-8.09,9.33A.81.81,0,0,1,463.09,323.17Z"/><path class="cls-15" d="M476.05,300.5a2.74,2.74,0,0,1-2.74-2.71,6.1,6.1,0,0,0-1.88-2.06,2.74,2.74,0,0,1,3.15-4.49c.7.49,4.22,3.12,4.22,6.51A2.75,2.75,0,0,1,476.05,300.5Zm-2.74-2.75h0Z"/><g class="cls-13"><path class="cls-14" d="M140.1,425.87H359.9a3.35,3.35,0,0,0,3.35-3.35h0a3.36,3.36,0,0,0-3.35-3.36H140.1a3.36,3.36,0,0,0-3.35,3.36h0A3.35,3.35,0,0,0,140.1,425.87Z"/></g><rect class="cls-19" x="73.75" y="159.2" width="352.5" height="229.44"/><rect class="cls-20" x="87.03" y="173.62" width="56.47" height="53.64"/><rect class="cls-21" x="92.54" y="178.86" width="45.44" height="43.16"/><rect class="cls-20" x="154.4" y="173.62" width="56.47" height="53.64"/><rect class="cls-21" x="159.91" y="178.86" width="45.44" height="43.16"/><rect class="cls-20" x="221.76" y="173.62" width="56.47" height="53.64"/><rect class="cls-21" x="227.28" y="178.86" width="45.44" height="43.16"/><rect class="cls-22" x="289.13" y="173.62" width="56.47" height="53.64"/><rect class="cls-23" x="294.65" y="178.86" width="45.44" height="43.16"/><rect class="cls-20" x="356.5" y="173.62" width="56.47" height="53.64"/><rect class="cls-21" x="362.02" y="178.86" width="45.44" height="43.16"/><rect class="cls-20" x="87.03" y="240.53" width="56.47" height="53.64"/><rect class="cls-21" x="92.54" y="245.77" width="45.44" height="43.16"/><rect class="cls-20" x="154.4" y="240.53" width="56.47" height="53.64"/><rect class="cls-21" x="159.91" y="245.77" width="45.44" height="43.16"/><rect class="cls-20" x="221.76" y="240.53" width="56.47" height="53.64"/><rect class="cls-21" x="227.28" y="245.77" width="45.44" height="43.16"/><rect class="cls-20" x="289.13" y="240.53" width="56.47" height="53.64"/><rect class="cls-21" x="294.65" y="245.77" width="45.44" height="43.16"/><rect class="cls-20" x="356.5" y="240.53" width="56.47" height="53.64"/><rect class="cls-21" x="362.02" y="245.77" width="45.44" height="43.16"/><rect class="cls-20" x="154.4" y="307.45" width="56.47" height="53.64"/><rect class="cls-21" x="159.91" y="312.69" width="45.44" height="43.16"/><rect class="cls-20" x="221.76" y="307.45" width="56.47" height="53.64"/><rect class="cls-21" x="227.28" y="312.69" width="45.44" height="43.16"/><rect class="cls-20" x="289.13" y="307.45" width="56.47" height="53.64"/><rect class="cls-21" x="294.65" y="312.69" width="45.44" height="43.16"/><rect class="cls-20" x="356.5" y="307.45" width="56.47" height="53.64"/><rect class="cls-21" x="362.02" y="312.69" width="45.44" height="43.16"/><rect class="cls-24" x="73.75" y="151.55" width="352.5" height="8.79"/><g class="cls-13"><polygon class="cls-14" points="352.46 274.48 345.55 300.61 337.9 304.73 312.34 294.82 321.21 265.14 352.46 274.48"/></g><polygon class="cls-12" points="352.46 274.48 345.55 297.61 337.03 302.2 312.34 294.82 321.21 265.14 352.46 274.48"/><polygon class="cls-25" points="345.55 297.61 337.03 302.2 336.71 302.11 338.76 295.24 345.64 297.3 345.55 297.61"/><g class="cls-13"><polygon class="cls-14" points="238.5 226.68 242.68 261.28 234.05 275.28 195.11 279.75 191.74 232.33 238.5 226.68"/></g><polygon class="cls-7" points="238.5 226.68 242.68 261.28 234.05 272.28 197.11 276.75 191.74 232.33 238.5 226.68"/><polygon class="cls-26" points="242.68 261.28 234.05 272.28 233.57 272.33 232.33 262.06 242.63 260.82 242.68 261.28"/><rect class="cls-22" x="72.43" y="315.35" width="56.47" height="53.64" transform="translate(-121.82 63.4) rotate(-22.2)"/><rect class="cls-23" x="77.94" y="320.59" width="45.44" height="43.16" transform="translate(-121.82 63.4) rotate(-22.2)"/><g class="cls-13"><path class="cls-14" d="M132.18,443.12h30a2,2,0,0,0,2-2h0a2,2,0,0,0-2-2h-30a2,2,0,0,0-2,2h0A2,2,0,0,0,132.18,443.12Z"/></g><path class="cls-15" d="M171,319.5c-5.8,0-12.4-6.56-14.54-8.87a2.81,2.81,0,1,1,4.12-3.82c3.12,3.35,7,6.12,9.28,6.88-1.4-3.05-5.26-8.83-8.85-13.49a2.81,2.81,0,0,1,4.46-3.43c7.63,9.9,11.14,16.48,10.44,19.55a3.63,3.63,0,0,1-1.91,2.49A6.62,6.62,0,0,1,171,319.5Z"/><path class="cls-15" d="M157.4,302a2.81,2.81,0,1,1,0-5.62,53.38,53.38,0,0,0,5.36-.62,2.81,2.81,0,1,1,.88,5.55A58.79,58.79,0,0,1,157.4,302Z"/><path class="cls-15" d="M151.71,314.64a3.33,3.33,0,0,1-2.86-1.62s-.36-.6-2.07-3.31c-2.4-3.8-1.57-10.33-1.37-11.6a3.32,3.32,0,0,1,6.57,1h0c-.37,2.51-.29,6,.42,7.07,1.89,3,2.16,3.46,2.16,3.46a3.31,3.31,0,0,1-1.16,4.55A3.25,3.25,0,0,1,151.71,314.64Z"/><path class="cls-7" d="M142.16,366.15s-2.88-5.28-1-15.4H164.8s.33,7.7-.21,15.4Z"/><path class="cls-7" d="M142.54,439h-.32a4.73,4.73,0,0,1-4.41-5c0-.28,1.82-27.5,2.55-36.54.76-9.57,1.15-31.86,1.16-32.08a4.72,4.72,0,0,1,4.72-4.65h.09A4.72,4.72,0,0,1,151,365.5c0,.92-.39,22.81-1.18,32.68-.72,9-2.52,36.13-2.54,36.4A4.74,4.74,0,0,1,142.54,439Z"/><path class="cls-7" d="M153.55,439a4.47,4.47,0,0,1-1-.1,4.74,4.74,0,0,1-3.68-5.59c1.66-8,5.92-30.69,5.76-38.89-.18-9.16.47-28.35.49-29.16a4.73,4.73,0,1,1,9.46.32c0,.19-.66,19.75-.49,28.65.21,10.94-5.7,39.77-5.95,41A4.73,4.73,0,0,1,153.55,439Z"/><path class="cls-15" d="M135,333.19c-1.61,0-4.33-1.53-12.53-12.88a2.81,2.81,0,1,1,4.56-3.3c2.12,2.94,4.7,6.22,6.61,8.38,1.37-6.51,3.73-17.76,3.73-17.76l5.5,1.16s-3.85,18.37-4.57,21.76a3.2,3.2,0,0,1-2.47,2.53A4.17,4.17,0,0,1,135,333.19Z"/><circle class="cls-15" cx="150.08" cy="291.39" r="10.57" transform="translate(-99.52 78.95) rotate(-22.35)"/><path class="cls-15" d="M120.59,322.8a2.81,2.81,0,1,1,0-5.62,7.31,7.31,0,0,0,2.79-1,2.81,2.81,0,0,1,2.82,4.87A12.53,12.53,0,0,1,120.59,322.8Z"/><path class="cls-12" d="M137,308.11c1.65,9.43,4.86,33.11,4.16,42.64H164.8s-1.43-35.1-3.67-43.65a2.33,2.33,0,0,0-2.26-1.73H139.28A2.34,2.34,0,0,0,137,308.11Z"/><path class="cls-2" d="M150.94,281.57c2.22.64,2.37,3.39,2.57,5.88.37,4.62-2.62,11.69-9.2,11.69-4.12,0-7.79-5.17-7.79-11.18,0-4.16,2.79-6,6.16-6.51C144.7,281.18,148.57,280.89,150.94,281.57Z"/><path class="cls-12" d="M171.12,319.89c-6.09,0-12.87-6.61-15-8.9l4.8-4.54h0a32.4,32.4,0,0,0,7.84,6.13c-.83-1.51-2.19-3.7-4.37-6.9l5.46-3.72c5.75,8.44,7.34,12,6.53,14.73a4.15,4.15,0,0,1-2.38,2.66A7.5,7.5,0,0,1,171.12,319.89Z"/><path class="cls-12" d="M135.12,333.65c-2.16,0-4.33-1.93-8.83-7.57l5.16-4.12c.75.94,1.4,1.72,2,2.37L137,307.17l6.46,1.35s-3.93,18.74-4.65,22.14a3.7,3.7,0,0,1-2.76,2.88A4.38,4.38,0,0,1,135.12,333.65Z"/><path class="cls-15" d="M149.9,291.83a3.61,3.61,0,0,0,1.28,2.76,1.43,1.43,0,0,0,2.33-1.12V290.2a1.43,1.43,0,0,0-2.33-1.13A3.62,3.62,0,0,0,149.9,291.83Z"/><path class="cls-2" d="M153.54,277.44c-7.61-.86-12.92.93-14.76,3.38-1.55,2.06-.3,4.1,1.68,4.93a93.78,93.78,0,0,0,13.58.58,7.36,7.36,0,0,0,6.74-4C161.6,280.21,159.14,278.07,153.54,277.44Z"/><path class="cls-12" d="M171.63,80.7c-4.93-1.76-5.22,6.77-2.5,10.67,1.64,2.35,3.81.57,5.45-2.57S177.41,82.76,171.63,80.7Z"/><path class="cls-15" d="M164.21,106.33a3.23,3.23,0,0,1-2.79-1.58s-.36-.59-2-3.24c-2.56-4.07-.26-10.28.23-11.49a3.25,3.25,0,0,1,6,2.43h0c-.84,2.1-1.22,4.88-.76,5.6,1.85,2.93,2.11,3.38,2.11,3.38a3.25,3.25,0,0,1-2.78,4.9Z"/><path class="cls-12" d="M150.28,151.54s-2.81-2.88-1-12.76h23.1a106.07,106.07,0,0,1-.2,12.76Z"/><path class="cls-12" d="M189.6,196.63a4.63,4.63,0,0,1-4.53-3.72c-.6-3-5.38-27.63-5.3-39.25-4.76-1-16.26-1.88-26-2.15a4.62,4.62,0,0,1,.25-9.23c30.09.82,32.64,3.86,33.87,5.32a5.18,5.18,0,0,1,1.19,4.13c-.86,5.85,2.62,27.27,5,39.39a4.61,4.61,0,0,1-3.63,5.42A4.66,4.66,0,0,1,189.6,196.63Zm-8-42.43h0Z"/><path class="cls-12" d="M183,184.12a4.61,4.61,0,0,1-3.44-7.68c4.05-4.57,14.24-16.71,18-23.91-5.45-1.46-19.43-2.18-31.25-1.94a4.62,4.62,0,1,1-.19-9.23c.34,0,8.52-.17,17.28.27,16.26.81,21,2.9,23.12,5.79a6,6,0,0,1,.88,5.6c-3.18,9.4-19.15,27.52-20.95,29.55A4.61,4.61,0,0,1,183,184.12Z"/><path class="cls-15" d="M186.51,140.34a2.73,2.73,0,0,1-1.4-.38c-1.25-.74-12.28-7.44-13.8-14.42-.75-3.47-2.33-22.67-2.51-24.85a2.74,2.74,0,0,1,5.47-.45c.69,8.41,1.9,21.78,2.41,24.14.76,3.51,7.29,8.52,11.23,10.86a2.74,2.74,0,0,1-1.4,5.1Z"/><path class="cls-27" d="M172.36,138.78H149.28c.67-9.29,2.15-29.62.55-38.83a2.28,2.28,0,0,1,2.24-2.67h19.12A2.27,2.27,0,0,1,173.4,99C175.59,107.32,172.36,138.78,172.36,138.78Z"/><path class="cls-15" d="M160.57,140.34a2.76,2.76,0,0,1-1.48-.43c-18-11.54-18.1-14.52-18.13-15.8-.1-3.66,5.88-18.49,8.46-24.7a2.75,2.75,0,1,1,5.07,2.11c-3.64,8.76-7.58,19.3-8,22.08,1.48,2,9,7.5,15.57,11.69a2.74,2.74,0,0,1-1.48,5.05Z"/><path class="cls-27" d="M154.74,101.63c-1,2.37-2,4.87-2.94,7.31l-5.68-2.1c1.16-2.94,2.26-5.63,3-7.53a3,3,0,1,1,5.58,2.32Z"/><path class="cls-27" d="M168.69,100.73c.37,2.53.71,5.21,1,7.81l6-.62c-.39-3.14-.78-6-1.07-8a3,3,0,1,0-6,.86Z"/><path class="cls-15" d="M174.8,88.54a10.32,10.32,0,1,1-8-12.22A10.31,10.31,0,0,1,174.8,88.54Z"/><path class="cls-15" d="M166.87,97.28c.56,2.8-1.29,4.45-4.53,3.79a13.61,13.61,0,0,1-6.55-3.79Z"/><path class="cls-15" d="M166.2,142.58a2.6,2.6,0,0,1-.72-.1,27.44,27.44,0,0,1-6.42-2.59,2.74,2.74,0,1,1,3-4.58,22.42,22.42,0,0,0,4.85,1.87,2.75,2.75,0,0,1-.73,5.4Z"/><path class="cls-15" d="M191.67,142h0a31.57,31.57,0,0,1-5.75-.64,2.75,2.75,0,0,1,1.17-5.37,24.73,24.73,0,0,0,4.58.52,2.75,2.75,0,1,1,0,5.49Z"/><path class="cls-12" d="M160.29,79.8c-2-1-2-2.66.05-3.7.07,0,1.17-.46,1.24-.49,2-1,7.57-2,13.27,2.18a4.65,4.65,0,0,0,.41.26,2.78,2.78,0,0,1-.35,5.12,8.38,8.38,0,0,1-3.71.11A40.59,40.59,0,0,1,160.29,79.8Z"/><path class="cls-12" d="M160.42,80.77a2.6,2.6,0,0,1-1.48-4.4l.17-.16c1.54-1.44,7.49-3.45,13.76-1.38l1.51.58c2.17.82,2,2.91.08,4.21a7.9,7.9,0,0,1-3.29,1.16A38.54,38.54,0,0,1,160.42,80.77Z"/><path class="cls-12" d="M159.5,79a1.61,1.61,0,0,1-1.83-2.23l.06-.13c.58-1.18,3.59-3.66,7.69-3.84h1c1.44,0,1.8,1.24,1,2.42a4.87,4.87,0,0,1-1.65,1.4A24.23,24.23,0,0,1,159.5,79Z"/><path class="cls-12" d="M158.44,79.17a1,1,0,0,0-.63-1.61h-.09a6,6,0,0,0-4.26,2.9l-.29.53c-.42.75.13,1.31,1,1.22a3,3,0,0,0,1.21-.46A14.51,14.51,0,0,0,158.44,79.17Z"/><path class="cls-12" d="M158.68,79.8a1.14,1.14,0,0,0-1.29-1.59l-.11,0a7.12,7.12,0,0,0-3.77,4.83c0,.06-.06.32-.14.7-.2,1,.62,1.44,1.56,1a3.36,3.36,0,0,0,1.21-1A16.87,16.87,0,0,0,158.68,79.8Z"/><path class="cls-12" d="M161.83,78.23c4.94,1.75-.22,8.55-4.79,9.85-2.76.79-3.31-2-2.61-5.43S156.05,76.18,161.83,78.23Z"/><path class="cls-28" d="M211.64,120.16a1.22,1.22,0,0,0-1-.53H183a1.23,1.23,0,0,0-1.23,1.23,1.21,1.21,0,0,0,.82,1.15L175.74,141h-.45a1.23,1.23,0,1,0,0,2.46h27.63a1.23,1.23,0,0,0,1.16-.81l7.72-21.32A1.22,1.22,0,0,0,211.64,120.16Z"/><path class="cls-6" d="M175.29,143.41h-18a1.23,1.23,0,0,1,0-2.46h17.16l7.43-20.5a1.23,1.23,0,0,1,2.31.83l-7.71,21.32A1.23,1.23,0,0,1,175.29,143.41Z"/><path class="cls-15" d="M153.78,87.51a4.19,4.19,0,0,0,1.08,3.37,1.67,1.67,0,0,0,2.86-1l.46-3.77a1.66,1.66,0,0,0-2.53-1.63A4.15,4.15,0,0,0,153.78,87.51Z"/><rect class="cls-29" x="182.81" y="89.54" width="18.21" height="3.07"/><rect class="cls-30" x="202.04" y="89.54" width="1.07" height="26.74"/><rect class="cls-29" x="191.33" y="93.95" width="9.69" height="3.07"/><rect class="cls-29" x="187.29" y="98.37" width="13.73" height="3.07"/><rect class="cls-29" x="198.41" y="107.2" width="2.62" height="3.07"/><rect class="cls-29" x="190.51" y="107.2" width="6.27" height="3.07"/><path class="cls-31" d="M159.71,109.87a2.12,2.12,0,0,1,2.1-1.81,1.73,1.73,0,0,1,.32,0,2.13,2.13,0,0,1,3.86-.48,2.16,2.16,0,0,1,1.21-.37,2.13,2.13,0,0,1,2.1,1.75,2.13,2.13,0,0,1-.16,4.26h-9.31a1.69,1.69,0,0,1-.12-3.38Z"/><path class="cls-32" d="M194.29,126.26l1.69,2.33,3-2.33c1.34-1.06,3.05-1.06,3.81,0s.3,2.76-1,3.81l-3,2.33,1.69,2.33c.76,1.06.3,2.76-1.05,3.82s-3,1-3.81,0l-1.69-2.33-3,2.33c-1.35,1-3,1-3.82,0s-.29-2.76,1.05-3.82l3-2.33-1.69-2.33c-.77-1-.3-2.76,1-3.81S193.52,125.2,194.29,126.26Z"/><path class="cls-6" d="M39,191.55a14.94,14.94,0,0,1,14.74-12.66,14.38,14.38,0,0,1,2.19.22,14.87,14.87,0,0,1,27-3.34,14.95,14.95,0,0,1,23.17,9.61A14.94,14.94,0,0,1,105,215.22H39.88A11.85,11.85,0,0,1,39,191.55Z"/><path class="cls-6" d="M132,79.72a7.47,7.47,0,0,0-7.37-6.33,7.89,7.89,0,0,0-1.09.11,7.43,7.43,0,0,0-13.49-1.66,7.39,7.39,0,0,0-4.22-1.32,7.48,7.48,0,0,0-7.35,6.12A7.46,7.46,0,0,0,99,91.54h32.54A5.92,5.92,0,0,0,132,79.72Z"/></g></g></svg>